<svg width="336" height="281" viewBox="0 0 336 281" fill="none" xmlns="http://www.w3.org/2000/svg">
<g clip-path="url(#clip0)">
<g opacity="0.5">
<path opacity="0.5" d="M231.501 31.6076H59.6144V263.275H231.501V31.6076Z" fill="url(#paint0_linear)"/>
</g>
<path d="M228.368 34.7497H61.854V258.334H228.368V34.7497Z" fill="#F2F2F2"/>
<path d="M132.129 44.1795H74.8346V45.9744H132.129V44.1795Z" fill="#E0E0E0"/>
<path opacity="0.7" d="M132.129 52.2585H74.8346V54.0534H132.129V52.2585Z" fill="#2F80ED"/>
<path d="M197.928 44.1795H140.634V45.9744H197.928V44.1795Z" fill="#E0E0E0"/>
<path d="M206.879 95.3625H149.585V97.1574H206.879V95.3625Z" fill="#E0E0E0"/>
<path d="M208.222 100.299H150.928V102.094H208.222V100.299Z" fill="#E0E0E0"/>
<path d="M210.909 105.236H153.614V107.031H210.909V105.236Z" fill="#E0E0E0"/>
<path d="M206.879 174.828H149.585V176.622H206.879V174.828Z" fill="#E0E0E0"/>
<path d="M208.222 179.768H150.928V181.563H208.222V179.768Z" fill="#E0E0E0"/>
<path d="M210.909 184.705H153.614V186.5H210.909V184.705Z" fill="#E0E0E0"/>
<g opacity="0.5">
<path opacity="0.5" d="M136.158 76.9544H75.2811V138.911H136.158V76.9544Z" fill="url(#paint1_linear)"/>
</g>
<path d="M135.58 78.3015H75.6653V137.563H135.58V78.3015Z" fill="#F5F5F5"/>
<g opacity="0.5">
<path opacity="0.5" d="M133.659 81.8914H77.7769V120.503H133.659V81.8914Z" fill="url(#paint2_linear)"/>
</g>
<path d="M133.274 82.3391H78.1611V119.603H133.274V82.3391Z" fill="white"/>
<path opacity="0.4" d="M73.4916 118.26L87.3687 96.7059L93.1874 106.136L105.718 93.1161L116.462 106.136L125.864 86.832L150.035 125.443L71.702 122.749L73.4916 118.26Z" fill="#2F80ED"/>
<path opacity="0.4" d="M84.2324 91.769C86.4577 91.769 88.2616 89.9596 88.2616 87.7276C88.2616 85.4957 86.4577 83.6863 84.2324 83.6863C82.0072 83.6863 80.2032 85.4957 80.2032 87.7276C80.2032 89.9596 82.0072 91.769 84.2324 91.769Z" fill="#2F80ED"/>
<g opacity="0.5">
<path opacity="0.5" d="M136.158 156.419H75.2811V218.376H136.158V156.419Z" fill="url(#paint3_linear)"/>
</g>
<path d="M135.58 157.767H75.6653V217.029H135.58V157.767Z" fill="#F5F5F5"/>
<g opacity="0.5">
<path opacity="0.5" d="M133.659 161.36H77.7769V199.971H133.659V161.36Z" fill="url(#paint4_linear)"/>
</g>
<path d="M133.274 161.808H78.1611V199.072H133.274V161.808Z" fill="white"/>
<path opacity="0.4" d="M73.4916 197.725L87.3687 176.175L93.1874 185.604L105.718 172.585L116.462 185.604L125.864 166.297L150.035 204.908L71.702 202.214L73.4916 197.725Z" fill="#BDBDBD"/>
<path opacity="0.4" d="M84.2324 171.238C86.4577 171.238 88.2616 169.428 88.2616 167.196C88.2616 164.964 86.4577 163.155 84.2324 163.155C82.0072 163.155 80.2032 164.964 80.2032 167.196C80.2032 169.428 82.0072 171.238 84.2324 171.238Z" fill="#BDBDBD"/>
<g opacity="0.5">
<path opacity="0.5" d="M129.872 20.1608L84.8511 247.384L253.441 280.989L298.461 53.7658L129.872 20.1608Z" fill="url(#paint5_linear)"/>
</g>
<path d="M131.453 23.6812L88.0033 242.977L251.324 275.532L294.773 56.2359L131.453 23.6812Z" fill="white"/>
<path d="M257.221 59.2726L141.317 36.1693L140.968 37.9298L256.873 61.0331L257.221 59.2726Z" fill="#E0E0E0"/>
<path d="M224.24 225.732L108.336 202.629L107.987 204.389L223.892 227.492L224.24 225.732Z" fill="#E0E0E0"/>
<path d="M195.892 230.611L106.329 212.758L105.981 214.519L195.543 232.371L195.892 230.611Z" fill="#E0E0E0"/>
<path opacity="0.7" d="M137.692 229.535L104.325 222.884L103.976 224.645L137.343 231.296L137.692 229.535Z" fill="#2F80ED"/>
<path opacity="0.7" d="M197.263 57.8538L139.313 46.3025L138.964 48.063L196.914 59.6143L197.263 57.8538Z" fill="#2F80ED"/>
<path d="M241.797 77.2566L137.307 56.4285L136.958 58.189L241.448 79.0171L241.797 77.2566Z" fill="#E0E0E0"/>
<path opacity="0.7" d="M160.764 71.6333L135.301 66.5577L134.952 68.3182L160.415 73.3938L160.764 71.6333Z" fill="#219653"/>
<path d="M249.195 99.7875L133.291 76.6842L132.942 78.4447L248.846 101.548L249.195 99.7875Z" fill="#E0E0E0"/>
<g opacity="0.5">
<path opacity="0.5" d="M143.508 119.464L131.642 179.353L235.691 200.093L247.557 140.204L143.508 119.464Z" fill="url(#paint6_linear)"/>
</g>
<path d="M246.833 140.515L144.098 120.037L132.494 178.605L235.229 199.084L246.833 140.515Z" fill="white"/>
<path d="M247.189 109.916L131.284 86.8123L130.935 88.5729L246.84 111.676L247.189 109.916Z" fill="#E0E0E0"/>
<path d="M166.017 132.645L153.286 130.107L144.823 172.82L157.554 175.357L166.017 132.645Z" fill="#2F80ED"/>
<path d="M186.054 151.289L173.323 148.752L167.652 177.373L180.383 179.911L186.054 151.289Z" fill="#219653"/>
<path d="M206.267 169.047L193.535 166.509L190.481 181.921L203.213 184.459L206.267 169.047Z" fill="#EB5757"/>
<path d="M232.237 157.747L219.505 155.209L213.311 186.473L226.042 189.011L232.237 157.747Z" fill="#F2C94C"/>
<g opacity="0.5">
<path opacity="0.5" d="M48.4235 236.787H47.0804V244.419H48.4235V236.787Z" fill="#F2C94C"/>
<path opacity="0.5" d="M51.5598 241.277V239.93H43.9516V241.277H51.5598Z" fill="#F2C94C"/>
</g>
<path opacity="0.5" d="M204.391 3.05764C204.021 2.89601 203.723 2.60355 203.555 2.23598C203.386 1.86842 203.358 1.45144 203.476 1.0645C203.495 1.00499 203.508 0.94338 203.512 0.880969C203.518 0.707789 203.47 0.537121 203.374 0.393124C203.278 0.249127 203.139 0.139095 202.977 0.0786077C202.815 0.0181202 202.638 0.0102406 202.472 0.0560836C202.305 0.101927 202.157 0.19917 202.049 0.334048C202.012 0.384102 201.981 0.438311 201.957 0.495556C201.796 0.866522 201.504 1.16506 201.138 1.33429C200.772 1.50352 200.356 1.53161 199.97 1.41321C199.911 1.39377 199.849 1.38145 199.787 1.3765C199.614 1.37054 199.444 1.4192 199.301 1.51559C199.157 1.61198 199.047 1.75123 198.987 1.91361C198.927 2.07599 198.919 2.25329 198.965 2.4204C199.01 2.5875 199.107 2.73596 199.242 2.84475C199.292 2.88156 199.346 2.91236 199.403 2.93651C199.773 3.09815 200.07 3.39061 200.239 3.75817C200.408 4.12574 200.436 4.54271 200.318 4.92966C200.298 4.98917 200.286 5.05077 200.281 5.11319C200.275 5.28637 200.324 5.45703 200.42 5.60103C200.516 5.74503 200.655 5.85506 200.817 5.91555C200.978 5.97603 201.155 5.98391 201.322 5.93807C201.488 5.89223 201.636 5.79498 201.745 5.66011C201.782 5.61005 201.812 5.55584 201.836 5.4986C201.998 5.12763 202.289 4.82909 202.656 4.65987C203.022 4.49064 203.438 4.46255 203.824 4.58095C203.883 4.60038 203.944 4.61271 204.007 4.61765C204.179 4.62362 204.349 4.57496 204.493 4.47856C204.636 4.38217 204.746 4.24293 204.806 4.08055C204.867 3.91816 204.875 3.74087 204.829 3.57376C204.783 3.40665 204.686 3.25819 204.552 3.14941C204.502 3.1126 204.448 3.0818 204.391 3.05764Z" fill="#4D8AF0"/>
<path opacity="0.5" d="M53.2102 41.1732C52.8404 41.0116 52.5428 40.7191 52.374 40.3516C52.2053 39.984 52.1773 39.567 52.2953 39.1801C52.3147 39.1206 52.327 39.059 52.3319 38.9966C52.3379 38.8234 52.2894 38.6527 52.1933 38.5087C52.0972 38.3647 51.9583 38.2547 51.7965 38.1942C51.6346 38.1337 51.4578 38.1258 51.2912 38.1717C51.1246 38.2175 50.9766 38.3148 50.8681 38.4496C50.8314 38.4997 50.8007 38.5539 50.7766 38.6111C50.6155 38.9821 50.3239 39.2806 49.9574 39.4499C49.591 39.6191 49.1753 39.6472 48.7895 39.5288C48.7302 39.5094 48.6687 39.497 48.6065 39.4921C48.4338 39.4861 48.2637 39.5348 48.1201 39.6312C47.9766 39.7276 47.8669 39.8668 47.8066 40.0292C47.7463 40.1916 47.7384 40.3689 47.7841 40.536C47.8298 40.7031 47.9268 40.8515 48.0612 40.9603C48.1111 40.9971 48.1652 41.0279 48.2223 41.0521C48.5921 41.2137 48.8897 41.5062 49.0585 41.8738C49.2272 42.2413 49.2552 42.6583 49.1371 43.0452C49.1178 43.1048 49.1055 43.1664 49.1006 43.2288C49.0946 43.402 49.1431 43.5726 49.2392 43.7166C49.3353 43.8606 49.4741 43.9707 49.636 44.0311C49.7979 44.0916 49.9747 44.0995 50.1413 44.0537C50.3079 44.0078 50.4559 43.9106 50.5644 43.7757C50.6011 43.7256 50.6318 43.6714 50.6559 43.6142C50.817 43.2432 51.1086 42.9447 51.475 42.7755C51.8415 42.6062 52.2572 42.5781 52.643 42.6965C52.7023 42.716 52.7638 42.7283 52.826 42.7332C52.9986 42.7392 53.1688 42.6905 53.3124 42.5942C53.4559 42.4978 53.5656 42.3585 53.6259 42.1961C53.6862 42.0338 53.6941 41.8565 53.6484 41.6893C53.6027 41.5222 53.5057 41.3738 53.3713 41.265C53.3214 41.2282 53.2673 41.1974 53.2102 41.1732Z" fill="#F2C94C"/>
<path opacity="0.5" d="M41.2433 153.149C40.8735 152.987 40.5758 152.695 40.4071 152.327C40.2384 151.96 40.2104 151.543 40.3284 151.156C40.3478 151.096 40.3601 151.035 40.365 150.972C40.371 150.799 40.3225 150.628 40.2264 150.484C40.1303 150.34 39.9914 150.23 39.8295 150.17C39.6676 150.109 39.4909 150.102 39.3243 150.147C39.1577 150.193 39.0097 150.29 38.9012 150.425C38.8645 150.475 38.8338 150.53 38.8097 150.587C38.6486 150.958 38.357 151.256 37.9905 151.426C37.6241 151.595 37.2083 151.623 36.8226 151.504C36.7632 151.485 36.7018 151.473 36.6396 151.468C36.4669 151.462 36.2968 151.51 36.1532 151.607C36.0096 151.703 35.8999 151.843 35.8396 152.005C35.7793 152.167 35.7715 152.345 35.8172 152.512C35.8629 152.679 35.9598 152.827 36.0943 152.936C36.1442 152.973 36.1983 153.004 36.2553 153.028C36.6252 153.189 36.9228 153.482 37.0915 153.849C37.2603 154.217 37.2883 154.634 37.1702 155.021C37.1508 155.08 37.1386 155.142 37.1336 155.204C37.1277 155.378 37.1762 155.548 37.2723 155.692C37.3684 155.836 37.5072 155.946 37.6691 156.007C37.831 156.067 38.0078 156.075 38.1744 156.029C38.341 155.984 38.489 155.886 38.5975 155.751C38.6342 155.701 38.6649 155.647 38.6889 155.59C38.8501 155.219 39.1417 154.92 39.5081 154.751C39.8746 154.582 40.2903 154.554 40.6761 154.672C40.7354 154.692 40.7968 154.704 40.8591 154.709C41.0317 154.715 41.2019 154.666 41.3454 154.57C41.489 154.473 41.5987 154.334 41.659 154.172C41.7193 154.009 41.7272 153.832 41.6815 153.665C41.6358 153.498 41.5388 153.349 41.4043 153.241C41.3544 153.204 41.3004 153.173 41.2433 153.149Z" fill="#F2C94C"/>
<path opacity="0.5" d="M123.624 13.1995C125.108 13.1995 126.31 11.9933 126.31 10.5053C126.31 9.0173 125.108 7.81105 123.624 7.81105C122.14 7.81105 120.938 9.0173 120.938 10.5053C120.938 11.9933 122.14 13.1995 123.624 13.1995Z" fill="#EB5757"/>
<path opacity="0.5" d="M2.68613 119.221C4.16963 119.221 5.37225 118.015 5.37225 116.527C5.37225 115.039 4.16963 113.833 2.68613 113.833C1.20262 113.833 0 115.039 0 116.527C0 118.015 1.20262 119.221 2.68613 119.221Z" fill="#EB5757"/>
<path opacity="0.5" d="M316.099 46.8737C317.583 46.8737 318.785 45.6675 318.785 44.1795C318.785 42.6915 317.583 41.4852 316.099 41.4852C314.616 41.4852 313.413 42.6915 313.413 44.1795C313.413 45.6675 314.616 46.8737 316.099 46.8737Z" fill="#EB5757"/>
<path opacity="0.5" d="M300.879 127.238C302.363 127.238 303.565 126.032 303.565 124.544C303.565 123.056 302.363 121.85 300.879 121.85C299.395 121.85 298.193 123.056 298.193 124.544C298.193 126.032 299.395 127.238 300.879 127.238Z" fill="#4D8AF0"/>
<path opacity="0.5" d="M13.7893 55.9989C15.2728 55.9989 16.4754 54.7926 16.4754 53.3046C16.4754 51.8166 15.2728 50.6104 13.7893 50.6104C12.3058 50.6104 11.1031 51.8166 11.1031 53.3046C11.1031 54.7926 12.3058 55.9989 13.7893 55.9989Z" fill="#F2C94C"/>
<path opacity="0.5" d="M312.268 240.308C313.751 240.308 314.954 239.101 314.954 237.613C314.954 236.125 313.751 234.919 312.268 234.919C310.784 234.919 309.582 236.125 309.582 237.613C309.582 239.101 310.784 240.308 312.268 240.308Z" fill="#F2C94C"/>
<path opacity="0.5" d="M333.314 160.887C334.797 160.887 336 159.68 336 158.192C336 156.704 334.797 155.498 333.314 155.498C331.83 155.498 330.628 156.704 330.628 158.192C330.628 159.68 331.83 160.887 333.314 160.887Z" fill="#F2C94C"/>
<path d="M267.478 220.622H199.234V276.808H267.478V220.622Z" fill="url(#paint7_linear)"/>
<path d="M213.313 209.875C213.313 204.564 215.416 199.471 219.16 195.716C222.904 191.961 227.981 189.851 233.276 189.851C238.57 189.851 243.648 191.961 247.392 195.716C251.136 199.471 253.239 204.564 253.239 209.875V222.689H258.827V209.875C258.827 203.077 256.135 196.558 251.343 191.751C246.551 186.945 240.051 184.245 233.274 184.245C226.497 184.245 219.997 186.945 215.205 191.751C210.413 196.558 207.721 203.077 207.721 209.875V222.689H213.309L213.313 209.875Z" fill="url(#paint8_linear)"/>
<path d="M214.111 209.599C214.111 204.501 216.13 199.612 219.724 196.007C223.318 192.402 228.193 190.376 233.276 190.376C238.359 190.376 243.233 192.402 246.828 196.007C250.422 199.612 252.441 204.501 252.441 209.599V221.903H257.806V209.599C257.806 203.074 255.221 196.816 250.621 192.202C246.021 187.587 239.782 184.995 233.276 184.995C226.77 184.995 220.531 187.587 215.93 192.202C211.33 196.816 208.746 203.074 208.746 209.599V221.903H214.111V209.599Z" fill="#F5F5F5"/>
<path d="M266.622 221.136H199.93V275.729H266.622V221.136Z" fill="#2F80ED"/>
<path d="M266.622 221.136H199.93V275.729H266.622V221.136Z" fill="#F5F5F5"/>
<path d="M266.622 231.898H199.93V264.959H266.622V231.898Z" fill="#2F80ED"/>
<path d="M238.165 242.176C238.166 241.375 237.971 240.587 237.598 239.879C237.225 239.171 236.685 238.565 236.025 238.115C235.365 237.665 234.605 237.384 233.812 237.296C233.019 237.208 232.216 237.316 231.474 237.611C230.732 237.906 230.073 238.379 229.555 238.989C229.037 239.598 228.676 240.325 228.503 241.106C228.33 241.888 228.35 242.7 228.562 243.472C228.774 244.244 229.171 244.952 229.719 245.535V255.999C229.719 256.946 230.093 257.853 230.761 258.522C231.428 259.191 232.332 259.567 233.276 259.567C234.219 259.567 235.124 259.191 235.791 258.522C236.458 257.853 236.833 256.946 236.833 255.999V245.546C237.692 244.635 238.169 243.429 238.165 242.176Z" fill="url(#paint9_linear)"/>
<path opacity="0.2" d="M237.492 243.05C237.493 242.359 237.325 241.679 237.003 241.069C236.682 240.458 236.216 239.936 235.647 239.548C235.078 239.159 234.423 238.917 233.738 238.841C233.054 238.765 232.362 238.859 231.722 239.113C231.082 239.368 230.514 239.775 230.068 240.301C229.621 240.826 229.31 241.453 229.16 242.127C229.011 242.801 229.029 243.502 229.211 244.167C229.394 244.833 229.737 245.443 230.209 245.946V254.968C230.209 255.784 230.532 256.566 231.107 257.143C231.683 257.72 232.463 258.044 233.276 258.044C234.089 258.044 234.869 257.72 235.444 257.143C236.02 256.566 236.343 255.784 236.343 254.968V245.946C237.081 245.163 237.492 244.127 237.492 243.05Z" fill="black"/>
</g>
<defs>
<linearGradient id="paint0_linear" x1="145.556" y1="263.275" x2="145.556" y2="31.6076" gradientUnits="userSpaceOnUse">
<stop stop-color="#808080" stop-opacity="0.25"/>
<stop offset="0.54" stop-color="#808080" stop-opacity="0.12"/>
<stop offset="1" stop-color="#808080" stop-opacity="0.1"/>
</linearGradient>
<linearGradient id="paint1_linear" x1="17661.4" y1="23523.7" x2="17661.4" y2="13066.1" gradientUnits="userSpaceOnUse">
<stop stop-color="#808080" stop-opacity="0.25"/>
<stop offset="0.54" stop-color="#808080" stop-opacity="0.12"/>
<stop offset="1" stop-color="#808080" stop-opacity="0.1"/>
</linearGradient>
<linearGradient id="paint2_linear" x1="16220.9" y1="12757.5" x2="16220.9" y2="8696.03" gradientUnits="userSpaceOnUse">
<stop stop-color="#808080" stop-opacity="0.25"/>
<stop offset="0.54" stop-color="#808080" stop-opacity="0.12"/>
<stop offset="1" stop-color="#808080" stop-opacity="0.1"/>
</linearGradient>
<linearGradient id="paint3_linear" x1="17661.4" y1="37016.7" x2="17661.4" y2="26558.5" gradientUnits="userSpaceOnUse">
<stop stop-color="#808080" stop-opacity="0.25"/>
<stop offset="0.54" stop-color="#808080" stop-opacity="0.12"/>
<stop offset="1" stop-color="#808080" stop-opacity="0.1"/>
</linearGradient>
<linearGradient id="paint4_linear" x1="16220.9" y1="21196.3" x2="16220.9" y2="17134.8" gradientUnits="userSpaceOnUse">
<stop stop-color="#808080" stop-opacity="0.25"/>
<stop offset="0.54" stop-color="#808080" stop-opacity="0.12"/>
<stop offset="1" stop-color="#808080" stop-opacity="0.1"/>
</linearGradient>
<linearGradient id="paint5_linear" x1="126753" y1="158952" x2="148022" y2="52252.3" gradientUnits="userSpaceOnUse">
<stop stop-color="#808080" stop-opacity="0.25"/>
<stop offset="0.54" stop-color="#808080" stop-opacity="0.12"/>
<stop offset="1" stop-color="#808080" stop-opacity="0.1"/>
</linearGradient>
<linearGradient id="paint6_linear" x1="28778.3" y1="65876.4" x2="32238" y2="48519.7" gradientUnits="userSpaceOnUse">
<stop stop-color="#808080" stop-opacity="0.25"/>
<stop offset="0.54" stop-color="#808080" stop-opacity="0.12"/>
<stop offset="1" stop-color="#808080" stop-opacity="0.1"/>
</linearGradient>
<linearGradient id="paint7_linear" x1="43715.5" y1="42591.7" x2="43715.5" y2="33991.3" gradientUnits="userSpaceOnUse">
<stop stop-color="#808080" stop-opacity="0.25"/>
<stop offset="0.54" stop-color="#808080" stop-opacity="0.12"/>
<stop offset="1" stop-color="#808080" stop-opacity="0.1"/>
</linearGradient>
<linearGradient id="paint8_linear" x1="39987" y1="26090.3" x2="39987" y2="22064" gradientUnits="userSpaceOnUse">
<stop stop-color="#808080" stop-opacity="0.25"/>
<stop offset="0.54" stop-color="#808080" stop-opacity="0.12"/>
<stop offset="1" stop-color="#808080" stop-opacity="0.1"/>
</linearGradient>
<linearGradient id="paint9_linear" x1="7839.57" y1="17507.4" x2="7839.57" y2="16152.6" gradientUnits="userSpaceOnUse">
<stop stop-color="#808080" stop-opacity="0.25"/>
<stop offset="0.54" stop-color="#808080" stop-opacity="0.12"/>
<stop offset="1" stop-color="#808080" stop-opacity="0.1"/>
</linearGradient>
<clipPath id="clip0">
<rect width="336" height="281" fill="white"/>
</clipPath>
</defs>
</svg>
