<svg width="336" height="269" viewBox="0 0 336 269" fill="none" xmlns="http://www.w3.org/2000/svg">
<path d="M139.529 269C153.483 269 164.795 266.121 164.795 262.569C164.795 259.017 153.483 256.137 139.529 256.137C125.575 256.137 114.263 259.017 114.263 262.569C114.263 266.121 125.575 269 139.529 269Z" fill="#F2F2F2"/>
<path d="M141.414 197.877C155.368 197.877 166.68 194.998 166.68 191.446C166.68 187.894 155.368 185.014 141.414 185.014C127.46 185.014 116.148 187.894 116.148 191.446C116.148 194.998 127.46 197.877 141.414 197.877Z" fill="#F2F2F2"/>
<path d="M25.266 200.904C39.22 200.904 50.532 198.024 50.532 194.472C50.532 190.92 39.22 188.041 25.266 188.041C11.312 188.041 0 190.92 0 194.472C0 198.024 11.312 200.904 25.266 200.904Z" fill="#F2F2F2"/>
<path d="M152.961 1.51324H8.53003V6.9988H152.961V1.51324Z" fill="#F5F5F5"/>
<path d="M155.224 0H5.89038V183.86H155.224V0Z" fill="url(#paint0_linear)"/>
<path d="M152.961 6.99883H8.53003V180.834H152.961V6.99883Z" fill="white"/>
<path d="M11.5016 5.67475C12.2306 5.67475 12.8215 5.08193 12.8215 4.35065C12.8215 3.61937 12.2306 3.02655 11.5016 3.02655C10.7727 3.02655 10.1818 3.61937 10.1818 4.35065C10.1818 5.08193 10.7727 5.67475 11.5016 5.67475Z" fill="#EB5757"/>
<path d="M15.1293 5.67475C15.8583 5.67475 16.4492 5.08193 16.4492 4.35065C16.4492 3.61937 15.8583 3.02655 15.1293 3.02655C14.4004 3.02655 13.8094 3.61937 13.8094 4.35065C13.8094 5.08193 14.4004 5.67475 15.1293 5.67475Z" fill="#FFFF00"/>
<path d="M18.7608 5.67475C19.4897 5.67475 20.0807 5.08193 20.0807 4.35065C20.0807 3.61937 19.4897 3.02655 18.7608 3.02655C18.0318 3.02655 17.4409 3.61937 17.4409 4.35065C17.4409 5.08193 18.0318 5.67475 18.7608 5.67475Z" fill="#219653"/>
<g opacity="0.2">
<path opacity="0.2" d="M68.8668 13.6193H12.6782V17.0242H68.8668V13.6193Z" fill="#2F80ED"/>
</g>
<path d="M108.84 27.6169H52.6512V31.0218H108.84V27.6169Z" fill="#F5F5F5"/>
<path opacity="0.5" d="M68.8668 137.328H12.6782V140.733H68.8668V137.328Z" fill="#2F80ED"/>
<path d="M95.2642 136.95H76.4089V141.111H95.2642V136.95Z" fill="url(#paint1_linear)"/>
<path d="M95.2642 158.135H76.4089V162.297H95.2642V158.135Z" fill="url(#paint2_linear)"/>
<path d="M133.729 158.135H114.874V162.297H133.729V158.135Z" fill="url(#paint3_linear)"/>
<path d="M94.8871 137.328H77.1632V140.733H94.8871V137.328Z" fill="#2F80ED"/>
<path d="M94.8871 158.513H77.1632V161.918H94.8871V158.513Z" fill="#2F80ED"/>
<path d="M132.975 158.513H115.251V161.918H132.975V158.513Z" fill="#2F80ED"/>
<path d="M68.8668 147.921H12.6782V151.325H68.8668V147.921Z" fill="#F5F5F5"/>
<path opacity="0.5" d="M133.352 147.921H77.1632V151.325H133.352V147.921Z" fill="#2F80ED"/>
<path d="M133.352 169.106H77.1632V172.511H133.352V169.106Z" fill="#F5F5F5"/>
<path opacity="0.5" d="M68.8668 158.513H12.6782V161.918H68.8668V158.513Z" fill="#2F80ED"/>
<path d="M68.8668 169.106H12.6782V172.511H68.8668V169.106Z" fill="#F5F5F5"/>
<path d="M84.328 33.2916H52.6512V36.6964H84.328V33.2916Z" fill="#F5F5F5"/>
<path d="M100.921 33.2916H89.9847V36.6964H100.921V33.2916Z" fill="#F5F5F5"/>
<path d="M84.328 44.641H52.6512V48.0458H84.328V44.641Z" fill="#F5F5F5"/>
<path d="M100.921 44.641H89.9847V48.0458H100.921V44.641Z" fill="#F5F5F5"/>
<path d="M108.84 38.9663H52.6512V42.3711H108.84V38.9663Z" fill="#F5F5F5"/>
<g opacity="0.2">
<path opacity="0.2" d="M148.059 13.6193H91.8702V17.0242H148.059V13.6193Z" fill="#2F80ED"/>
</g>
<path d="M130.335 27.2386H123.547V31.4H130.335V27.2386Z" fill="url(#paint4_linear)"/>
<path d="M130.335 32.9133H123.547V37.0748H130.335V32.9133Z" fill="url(#paint5_linear)"/>
<path d="M130.335 38.588H123.547V42.7495H130.335V38.588Z" fill="url(#paint6_linear)"/>
<path d="M129.958 27.6169H123.924V31.0218H129.958V27.6169Z" fill="#EB5757"/>
<path d="M129.958 33.2916H123.924V36.6964H129.958V33.2916Z" fill="#F2C94C"/>
<path d="M129.958 38.9663H123.924V42.3711H129.958V38.9663Z" fill="#219653"/>
<path d="M130.335 44.2627H123.547V48.4242H130.335V44.2627Z" fill="url(#paint7_linear)"/>
<path d="M129.958 44.641H123.924V48.0458H129.958V44.641Z" fill="#2F80ED"/>
<path d="M149.944 68.8531H11.5469V125.6H149.944V68.8531Z" fill="url(#paint8_linear)"/>
<path opacity="0.5" d="M148.059 69.9881H12.6782V123.709H148.059V69.9881Z" fill="#2F80ED"/>
<path opacity="0.5" d="M16.8264 74.1495H148.059V69.9881H12.6782V123.709H16.8264V74.1495Z" fill="white"/>
<path d="M151.202 65.288L12.2474 77.9744L17.4425 135.241L156.397 122.555L151.202 65.288Z" fill="url(#paint9_linear)"/>
<path d="M149.459 66.9621L14.636 79.2713L19.4893 132.771L154.313 120.462L149.459 66.9621Z" fill="white"/>
<path opacity="0.5" d="M24.7002 123.175L22.3622 93.3754C22.3622 93.3754 34.4295 80.5127 58.7905 90.0462C83.1514 99.5798 94.638 92.8496 98.5976 86.4106C102.557 79.9717 123.109 72.7913 129.769 83.5619C136.429 94.3325 144.416 82.2227 144.416 82.2227L147.116 111.985L24.7002 123.175Z" fill="#2F80ED"/>
<path d="M36.9675 86.8835L37.1712 89.1459" stroke="#2F80ED" stroke-width="0.979042" stroke-miterlimit="10"/>
<path d="M37.5673 93.4813L39.7318 117.338" stroke="#2F80ED" stroke-width="0.979042" stroke-miterlimit="10" stroke-dasharray="11.27 11.27"/>
<path d="M39.9279 119.506L40.1353 121.764" stroke="#2F80ED" stroke-width="0.979042" stroke-miterlimit="10"/>
<path d="M60.1556 90.5759L60.363 92.8344" stroke="#2F80ED" stroke-width="0.979042" stroke-miterlimit="10"/>
<path d="M60.8081 97.7562L62.3731 114.973" stroke="#2F80ED" stroke-width="0.979042" stroke-miterlimit="10" stroke-dasharray="12.79 12.79"/>
<path d="M62.5955 117.432L62.7991 119.695" stroke="#2F80ED" stroke-width="0.979042" stroke-miterlimit="10"/>
<path d="M83.8153 94.6163L84.0416 96.8748" stroke="#2F80ED" stroke-width="0.979042" stroke-miterlimit="10"/>
<path d="M84.4073 100.563L85.6819 113.464" stroke="#2F80ED" stroke-width="0.979042" stroke-miterlimit="10" stroke-dasharray="9.58 9.58"/>
<path d="M85.8667 115.306L86.0892 117.569" stroke="#2F80ED" stroke-width="0.979042" stroke-miterlimit="10"/>
<path d="M105.08 81.2769L105.284 83.5392" stroke="#2F80ED" stroke-width="0.979042" stroke-miterlimit="10"/>
<path d="M105.668 87.7877L107.792 111.164" stroke="#2F80ED" stroke-width="0.979042" stroke-miterlimit="10" stroke-dasharray="11.04 11.04"/>
<path d="M107.984 113.286L108.191 115.548" stroke="#2F80ED" stroke-width="0.979042" stroke-miterlimit="10"/>
<path d="M120.428 78.1558L120.632 80.4144" stroke="#2F80ED" stroke-width="0.979042" stroke-miterlimit="10"/>
<path d="M121.039 84.9088L123.283 109.624" stroke="#2F80ED" stroke-width="0.979042" stroke-miterlimit="10" stroke-dasharray="11.68 11.68"/>
<path d="M123.487 111.871L123.694 114.13" stroke="#2F80ED" stroke-width="0.979042" stroke-miterlimit="10"/>
<path d="M37.0674 88.6219C38.1045 88.5272 38.8687 87.6071 38.7743 86.5667C38.6799 85.5263 37.7627 84.7597 36.7257 84.8544C35.6886 84.949 34.9244 85.8692 35.0188 86.9096C35.1132 87.9499 36.0304 88.7166 37.0674 88.6219Z" fill="#F2C94C"/>
<path d="M60.1462 92.5942C61.1832 92.4996 61.9474 91.5794 61.853 90.539C61.7587 89.4986 60.8415 88.732 59.8044 88.8267C58.7673 88.9214 58.0031 89.8415 58.0975 90.8819C58.1919 91.9223 59.1091 92.6889 60.1462 92.5942Z" fill="#EB5757"/>
<path d="M83.9808 96.4945C85.0178 96.3998 85.782 95.4797 85.6877 94.4393C85.5933 93.3989 84.6761 92.6323 83.639 92.727C82.6019 92.8216 81.8377 93.7418 81.9321 94.7822C82.0265 95.8225 82.9437 96.5892 83.9808 96.4945Z" fill="#219653"/>
<path d="M105.181 83.9223C106.633 83.7897 107.702 82.5015 107.57 81.045C107.438 79.5884 106.154 78.5151 104.702 78.6477C103.25 78.7802 102.18 80.0684 102.313 81.525C102.445 82.9815 103.729 84.0548 105.181 83.9223Z" fill="url(#paint10_linear)"/>
<path d="M120.817 80.9768C122.269 80.8443 123.338 79.556 123.206 78.0995C123.074 76.643 121.79 75.5697 120.338 75.7022C118.886 75.8348 117.816 77.123 117.949 78.5795C118.081 80.0361 119.365 81.1094 120.817 80.9768Z" fill="url(#paint11_linear)"/>
<path d="M105.112 83.1688C106.149 83.0741 106.914 82.1539 106.819 81.1135C106.725 80.0732 105.808 79.3065 104.771 79.4012C103.734 79.4959 102.969 80.416 103.064 81.4564C103.158 82.4968 104.075 83.2634 105.112 83.1688Z" fill="#2F80ED"/>
<path d="M120.748 80.2234C121.786 80.1287 122.55 79.2085 122.455 78.1682C122.361 77.1278 121.444 76.3611 120.407 76.4558C119.37 76.5505 118.605 77.4706 118.7 78.511C118.794 79.5514 119.711 80.3181 120.748 80.2234Z" fill="#2F80ED"/>
<path d="M144.647 84.8785C145.684 84.7838 146.448 83.8637 146.354 82.8233C146.26 81.7829 145.342 81.0163 144.305 81.111C143.268 81.2056 142.504 82.1258 142.598 83.1662C142.693 84.2066 143.61 84.9732 144.647 84.8785Z" fill="#219653"/>
<g opacity="0.2">
<path opacity="0.2" d="M148.3 120.576L148.326 120.661C148.614 120.501 148.3 120.576 148.3 120.576Z" fill="url(#paint12_linear)"/>
</g>
<g opacity="0.2">
<path opacity="0.2" d="M145.178 184.125L151.317 183.13L150.472 179.347V179.294H150.45L146.098 159.244V144.622C146.097 144.436 146.087 144.25 146.068 144.066C152.569 135.417 148.707 121.847 148.33 120.663C148.262 120.697 148.161 120.743 148.017 120.799C147.97 120.27 147.87 119.746 147.719 119.237C147.719 119.237 145.834 118.034 144.804 119.581C143.907 120.932 144.574 121.757 144.759 121.949L144.631 121.991C144.92 122.447 145.122 122.952 145.227 123.482C145.167 123.351 145.099 123.225 145.023 123.103C144.785 123.062 144.646 123.024 144.646 123.024L144.601 122.982L144.472 123.024C145.125 123.981 145.355 125.672 145.325 127.677C145.099 127.364 144.847 127.072 144.57 126.803C143.378 125.661 141.806 125.003 140.158 124.957H139.845C139.674 124.957 139.503 124.968 139.333 124.991H139.204L138.989 125.021L138.744 125.067L138.567 125.105L138.262 125.188L138.148 125.222C138.02 125.263 137.896 125.305 137.771 125.354C137.358 125.556 136.924 125.713 136.478 125.823C136.417 125.823 136.357 125.823 136.293 125.842C135.789 125.878 135.288 125.734 134.879 125.438L134.743 125.332C134.692 125.287 134.643 125.241 134.596 125.192C134.545 125.323 134.523 125.463 134.532 125.604C134.56 125.937 134.719 126.246 134.973 126.463C135.045 126.525 135.123 126.578 135.207 126.622C135.331 126.687 135.467 126.725 135.607 126.735H135.75H135.716C135.629 126.777 135.543 126.815 135.452 126.849H135.433C135.335 126.883 135.241 126.913 135.139 126.939C134.645 127.065 134.128 127.072 133.631 126.962L133.469 126.924C133.389 126.902 133.306 126.879 133.231 126.852C133.256 126.909 133.283 126.965 133.314 127.019L133.344 127.068L133.412 127.174L133.453 127.227L133.529 127.322L133.574 127.371L133.668 127.465L133.706 127.499L133.846 127.617L133.895 127.651L133.996 127.723L134.064 127.764L134.155 127.817L134.23 127.855L134.325 127.897L134.404 127.931L134.509 127.968L134.641 128.006L134.739 128.033H134.834H134.92H135.018H135.396C135.59 128.016 135.781 127.969 135.961 127.893L135.614 128.037L135.441 128.097L135.264 128.161L135.086 128.214L134.905 128.267L134.728 128.313L134.54 128.358L134.366 128.392L134.166 128.426L134 128.453L133.785 128.479H133.631H133.386H133.257H132.88C133.089 128.54 133.283 128.643 133.45 128.782C133.558 128.86 133.676 128.924 133.8 128.971C133.856 128.987 133.913 129 133.97 129.009H134.019H134.14H134.649H134.815C135.159 129.044 135.491 129.151 135.792 129.323C135.95 129.425 136.092 129.553 136.21 129.701C136.157 129.788 136.105 129.871 136.059 129.962C136.014 130.053 135.98 130.113 135.942 130.193C135.867 130.349 135.8 130.509 135.742 130.673C135.528 131.261 135.418 131.882 135.418 132.508C135.418 132.625 135.418 132.739 135.418 132.852C135.418 132.883 135.418 132.917 135.418 132.947C135.418 133.038 135.428 133.129 135.448 133.219V133.291C135.463 133.402 135.484 133.512 135.509 133.62V133.685C135.529 133.776 135.551 133.865 135.577 133.953L135.599 134.033C135.663 134.247 135.739 134.457 135.829 134.661L135.856 134.721C135.898 134.815 135.942 134.905 135.988 134.994V135.02C136.043 135.121 136.101 135.221 136.161 135.319V135.342C136.216 135.433 136.275 135.521 136.338 135.607L136.361 135.637C136.496 135.824 136.644 136.002 136.802 136.17C137.213 136.604 137.694 136.966 138.224 137.241C138.206 137.322 138.192 137.404 138.182 137.487C138.178 137.573 138.178 137.658 138.182 137.744V139.742C138.069 139.802 137.959 139.866 137.85 139.935C133.125 137.782 126.089 122.532 126.089 122.532H125.919C126.605 122.018 125.919 119.778 125.919 119.778C125.516 119.537 125.066 119.387 124.599 119.339H124.222H124.154H124.105H124.037H123.992L123.917 119.362H123.879L123.766 119.403L123.66 119.453L123.622 119.472L123.551 119.513L123.502 119.744L123.434 119.789L123.392 119.823L123.328 119.876L123.287 119.914L123.223 119.975L123.185 120.016L123.121 120.092L123.091 120.13L122.996 120.258C121.967 121.806 122.996 122.668 122.996 122.668C122.93 123.265 122.899 123.865 122.902 124.465C122.827 135.61 134.717 144.247 135.324 144.679C135.056 145.375 132.846 151.541 135.35 159.24C135.358 159.259 135.368 159.276 135.38 159.293C132.529 161.929 130.413 165.265 129.241 168.973C128.069 172.68 127.882 176.631 128.698 180.433L128.747 180.664H128.857C128.845 180.715 128.832 180.765 128.815 180.815C128.786 180.906 128.749 180.995 128.706 181.08C128.63 181.225 128.538 181.361 128.43 181.485C128.314 181.621 128.178 181.757 128.034 181.897L127.884 182.041C127.284 182.616 126.677 183.176 127.129 183.403H133.619V180.562H133.733C133.733 180.562 133.687 180.475 133.619 180.304V180.274H133.597C133.257 179.396 132.465 176.68 133.733 172.496C135.275 167.332 141.275 164.752 141.275 164.752L141.384 165.13H141.361L146.068 180.641C146.068 180.702 146.068 180.762 146.049 180.826C146.027 180.973 145.993 181.117 145.947 181.258C145.911 181.366 145.868 181.472 145.819 181.576C145.528 182.177 145.027 182.884 144.808 183.414C144.777 183.487 144.75 183.561 144.729 183.637C144.703 183.723 144.694 183.813 144.702 183.902C144.709 183.959 144.731 184.013 144.766 184.057C144.802 184.102 144.849 184.136 144.902 184.156H144.989L145.17 184.125H145.178ZM143.36 139.965C143.242 139.899 143.116 139.837 142.983 139.779V137.903C142.982 137.76 142.968 137.616 142.941 137.475C143.348 137.281 143.728 137.036 144.073 136.745C143.846 137.903 143.594 139.011 143.364 139.965H143.36Z" fill="url(#paint13_linear)"/>
</g>
<path d="M122.891 124.318C122.891 124.318 121.76 123.364 122.891 121.647C124.022 119.929 126.123 121.268 126.123 121.268C126.123 121.268 126.877 123.746 126.123 124.318C125.368 124.889 122.891 124.318 122.891 124.318Z" fill="#CA7070"/>
<path d="M134.641 188.124H129.403C129.423 188.372 129.389 188.62 129.303 188.853C129.218 189.087 129.084 189.298 128.909 189.475C128.204 190.292 126.786 191.279 127.454 191.616H134.641V188.124Z" fill="#00695C"/>
<path opacity="0.2" d="M129.29 189.475C129.465 189.298 129.599 189.087 129.684 188.853C129.77 188.62 129.804 188.372 129.784 188.124H129.407C129.427 188.372 129.392 188.62 129.307 188.853C129.222 189.087 129.088 189.298 128.913 189.475C128.208 190.292 126.79 191.279 127.458 191.616H127.835C127.167 191.279 128.585 190.296 129.29 189.475Z" fill="white"/>
<path d="M153.293 187.042L148.39 187.84C148.526 188.426 148.447 189.041 148.168 189.573C147.632 190.708 146.43 192.123 147.154 192.429L154.251 191.294L153.293 187.042Z" fill="#00695C"/>
<path d="M150.902 121.991C150.902 121.991 156.51 139.738 147.105 149.563L144.39 147.478C144.39 147.478 149.948 128.108 146.837 123.561C152.328 121.726 150.902 121.991 150.902 121.991Z" fill="#00695C"/>
<path d="M147.026 123.557C147.026 123.557 145.894 122.604 147.026 120.886C148.157 119.169 150.257 120.508 150.257 120.508C150.257 120.508 151.012 122.986 150.257 123.557C149.503 124.128 147.026 123.557 147.026 123.557Z" fill="#CA7070"/>
<path opacity="0.2" d="M148.545 189.577C148.825 189.044 148.904 188.427 148.768 187.84L153.293 187.084V187.023L148.39 187.84C148.526 188.426 148.447 189.041 148.168 189.573C147.632 190.708 146.43 192.123 147.154 192.429L147.451 192.38C146.912 192.002 148.032 190.644 148.545 189.577Z" fill="white"/>
<path d="M145.03 141.194C145.03 139.719 143.839 138.523 142.37 138.523C140.901 138.523 139.709 139.719 139.709 141.194V143.763C139.709 145.238 140.901 146.434 142.37 146.434C143.839 146.434 145.03 145.238 145.03 143.763V141.194Z" fill="#CA7070"/>
<path opacity="0.2" d="M144.77 148.621C144.77 148.621 150.261 129.489 147.271 124.787C147.007 124.738 146.837 124.7 146.837 124.7L146.788 124.654L146.648 124.7C149.76 129.24 144.201 148.617 144.201 148.617L146.916 150.701L147.154 150.444L144.77 148.621Z" fill="white"/>
<path d="M142.466 141.289C145.719 141.289 148.357 138.643 148.357 135.38C148.357 132.116 145.719 129.47 142.466 129.47C139.213 129.47 136.576 132.116 136.576 135.38C136.576 138.643 139.213 141.289 142.466 141.289Z" fill="#CA7070"/>
<path opacity="0.2" d="M140.373 143.767V141.194C140.374 141.006 140.394 140.818 140.434 140.634C139.283 140.042 138.359 139.086 137.804 137.914C137.25 136.742 137.094 135.42 137.363 134.151C137.631 132.882 138.309 131.737 139.29 130.892C140.272 130.048 141.503 129.551 142.794 129.478H142.463C141.141 129.477 139.858 129.923 138.82 130.742C137.781 131.561 137.047 132.707 136.736 133.996C136.425 135.284 136.554 136.64 137.104 137.845C137.654 139.051 138.591 140.036 139.766 140.642C139.726 140.826 139.706 141.014 139.706 141.202V143.774C139.702 144.154 139.781 144.53 139.935 144.877C140.089 145.224 140.316 145.534 140.6 145.785C140.884 146.036 141.218 146.223 141.581 146.333C141.943 146.443 142.325 146.474 142.7 146.423C142.057 146.339 141.466 146.023 141.038 145.535C140.61 145.046 140.374 144.417 140.373 143.767Z" fill="white"/>
<path d="M148.451 164.831C148.451 164.831 137.089 166.118 136.67 164.831C133.725 155.774 136.67 148.628 136.67 148.628C136.67 147.061 137.291 145.558 138.395 144.45C139.5 143.341 140.998 142.719 142.561 142.719C144.123 142.719 145.621 143.341 146.726 144.45C147.83 145.558 148.451 147.061 148.451 148.628V164.831Z" fill="#00695C"/>
<path d="M148.451 164.831L153.583 188.472H148.451L143.13 170.934C143.13 170.934 136.478 173.794 134.77 179.514C133.061 185.234 134.77 188.472 134.77 188.472H129.256L129.2 188.215C128.293 184.003 128.505 179.625 129.816 175.521C131.126 171.417 133.488 167.731 136.666 164.831" fill="#263238"/>
<path opacity="0.2" d="M137.334 164.831C134.389 155.774 137.334 148.628 137.334 148.628C137.334 147.127 137.903 145.682 138.926 144.586C139.95 143.491 141.35 142.827 142.843 142.73C142.719 142.73 142.591 142.73 142.466 142.73C140.904 142.73 139.406 143.353 138.301 144.461C137.197 145.569 136.576 147.072 136.576 148.639C136.576 148.639 133.631 155.79 136.576 164.843C136.727 165.304 138.28 165.433 140.211 165.414C138.642 165.38 137.455 165.228 137.334 164.831Z" fill="white"/>
<path d="M136.576 148.53C136.576 148.53 121.375 137.854 122.895 124.318H126.315C126.315 124.318 134.483 142.064 139.717 143.767C144.951 145.469 136.576 148.53 136.576 148.53Z" fill="#00695C"/>
<g opacity="0.2">
<path opacity="0.2" d="M143.228 171.35L148.451 188.567H149.205L143.884 171.028C143.884 171.028 143.639 171.134 143.228 171.35Z" fill="white"/>
<path opacity="0.2" d="M137.428 164.926H136.674C133.496 167.825 131.134 171.512 129.823 175.616C128.513 179.72 128.3 184.097 129.207 188.309L129.264 188.567H130.018L129.962 188.309C129.055 184.097 129.267 179.72 130.577 175.616C131.888 171.512 134.25 167.825 137.428 164.926Z" fill="white"/>
</g>
<path opacity="0.2" d="M123.464 124.511H122.895C121.386 138.047 136.576 148.723 136.576 148.723L136.953 148.579C135.192 147.274 122.042 137.146 123.464 124.511Z" fill="white"/>
<path d="M137.768 132.739C138.096 133.5 138.327 134.299 138.454 135.119C138.831 136.776 139.683 138.429 141.15 139.28C141.963 139.722 142.866 139.969 143.79 140.003C145.193 140.09 146.712 139.817 147.704 138.818C148.322 138.142 148.736 137.304 148.9 136.401C149.196 135.067 149.156 133.68 148.781 132.367C148.406 131.053 147.709 129.854 146.754 128.88C145.773 127.93 144.545 127.277 143.211 126.997C141.876 126.716 140.49 126.82 139.212 127.295C138.755 127.519 138.276 127.694 137.783 127.817C137.405 127.878 137.018 127.846 136.655 127.725C136.292 127.604 135.964 127.397 135.697 127.121C135.636 127.32 135.623 127.53 135.658 127.735C135.693 127.94 135.776 128.133 135.9 128.3C136.023 128.467 136.185 128.602 136.37 128.694C136.556 128.786 136.761 128.833 136.968 128.831C136.532 129.041 136.059 129.162 135.577 129.188C135.094 129.214 134.611 129.144 134.155 128.982C134.413 129.528 134.868 129.956 135.427 130.18C135.987 130.404 136.61 130.407 137.172 130.189C136.104 130.666 134.946 130.903 133.778 130.885C134.023 130.885 134.502 131.339 134.8 131.43C135.174 131.49 135.552 131.516 135.931 131.509C136.318 131.533 136.692 131.66 137.015 131.876C137.337 132.092 137.597 132.389 137.768 132.739Z" fill="#263238"/>
<g opacity="0.2">
<path opacity="0.2" d="M136.983 128.823C136.547 129.035 136.072 129.158 135.588 129.183C136.201 129.214 136.811 129.091 137.364 128.823C137.18 128.825 136.997 128.787 136.828 128.714C136.659 128.64 136.506 128.532 136.381 128.397C136.255 128.261 136.159 128.101 136.099 127.927C136.038 127.752 136.014 127.566 136.029 127.382C135.915 127.302 135.809 127.213 135.712 127.113C135.651 127.312 135.638 127.522 135.673 127.727C135.708 127.932 135.791 128.126 135.915 128.292C136.039 128.459 136.2 128.594 136.386 128.686C136.571 128.779 136.776 128.826 136.983 128.823Z" fill="white"/>
<path opacity="0.2" d="M138.175 127.821C138.668 127.698 139.147 127.523 139.604 127.299C140.325 127.013 141.091 126.858 141.867 126.841C140.965 126.812 140.067 126.967 139.227 127.299C138.77 127.523 138.291 127.698 137.798 127.821C137.73 127.821 137.662 127.821 137.594 127.844C137.788 127.861 137.983 127.853 138.175 127.821Z" fill="white"/>
<path opacity="0.2" d="M135.162 131.434C134.864 131.347 134.385 130.897 134.14 130.889C135.308 130.907 136.466 130.67 137.534 130.193C137.294 130.292 137.039 130.346 136.78 130.352C135.818 130.723 134.793 130.906 133.763 130.889C134.008 130.889 134.487 131.343 134.785 131.434C135.044 131.497 135.311 131.519 135.577 131.498C135.436 131.494 135.297 131.473 135.162 131.434Z" fill="white"/>
<path opacity="0.2" d="M144.178 140.006C143.255 139.973 142.351 139.726 141.539 139.284C140.072 138.425 139.234 136.772 138.842 135.122C138.715 134.303 138.484 133.504 138.156 132.743C137.983 132.391 137.719 132.093 137.392 131.878C137.065 131.663 136.687 131.54 136.297 131.521C136.109 131.507 135.919 131.507 135.731 131.521H135.916C136.306 131.54 136.684 131.663 137.011 131.878C137.338 132.093 137.602 132.391 137.775 132.743C138.103 133.504 138.334 134.303 138.461 135.122C138.839 136.779 139.691 138.433 141.158 139.284C141.97 139.726 142.874 139.973 143.797 140.006C144.016 140.006 144.235 140.006 144.457 140.006H144.178Z" fill="white"/>
<path opacity="0.2" d="M136.542 130.337C136.143 130.308 135.757 130.179 135.42 129.963C135.083 129.747 134.805 129.45 134.611 129.1C134.462 129.068 134.314 129.026 134.17 128.975C134.381 129.416 134.721 129.783 135.144 130.026C135.568 130.27 136.055 130.378 136.542 130.337Z" fill="white"/>
</g>
<path opacity="0.2" d="M123.272 124.318C123.272 124.318 122.14 123.364 123.272 121.647C123.422 121.401 123.628 121.194 123.873 121.044C124.118 120.893 124.395 120.803 124.682 120.78C124.333 120.739 123.979 120.799 123.662 120.952C123.346 121.106 123.079 121.347 122.895 121.647C121.763 123.364 122.895 124.318 122.895 124.318C123.629 124.483 124.378 124.566 125.131 124.567C124.505 124.536 123.883 124.453 123.272 124.318Z" fill="white"/>
<g opacity="0.2">
<path opacity="0.2" d="M13.9411 124.408L13.9712 124.306C13.9712 124.306 13.5877 124.231 13.9411 124.408Z" fill="url(#paint14_linear)"/>
</g>
<g opacity="0.2">
<path opacity="0.2" d="M49.4762 130.749C49.4399 130.628 49.3945 130.511 49.3405 130.397C49.3405 130.359 49.3028 130.329 49.2839 130.295C49.2497 130.227 49.212 130.162 49.1708 130.098L49.0953 130C49.0564 129.949 49.0148 129.899 48.9709 129.852L48.8842 129.765C48.8389 129.724 48.7937 129.686 48.7484 129.652L48.6541 129.584L48.5033 129.493L48.409 129.444L48.2393 129.372L48.1526 129.338C48.0721 129.31 47.9904 129.287 47.9075 129.27C47.3588 129.166 46.7942 129.181 46.252 129.315C46.252 129.315 44.6719 131.653 45.2791 132.493L45.0792 132.433C45.0792 132.433 33.3399 145.575 26.718 148.015C26.5495 147.899 26.3748 147.791 26.1938 147.69V145.231C26.1993 145.128 26.1993 145.024 26.1938 144.921C26.1824 144.823 26.1661 144.726 26.1448 144.629L26.1938 144.603L26.3899 144.493L26.6727 144.319L26.8537 144.202C26.9895 144.109 27.1152 144.01 27.2308 143.907L27.3779 143.778C27.4684 143.702 27.5551 143.623 27.6381 143.54L27.7889 143.392C27.8945 143.284 27.9951 143.173 28.0906 143.059L28.1962 142.931C28.2867 142.817 28.3735 142.701 28.4564 142.583L28.562 142.424C28.6374 142.308 28.7091 142.189 28.777 142.068L28.8448 141.951C28.9278 141.796 29.007 141.633 29.0749 141.467L29.1352 141.319C29.188 141.185 29.237 141.05 29.2823 140.914C29.2823 140.865 29.3162 140.82 29.3275 140.771C29.3803 140.593 29.4293 140.415 29.4671 140.23C29.4671 140.192 29.4671 140.158 29.4859 140.12C29.5161 139.966 29.54 139.81 29.5576 139.651C29.5576 139.598 29.5576 139.545 29.5576 139.492C29.5576 139.299 29.5877 139.114 29.5877 138.905C29.5879 137.433 29.0848 136.006 28.1623 134.861C28.6638 134.074 28.9919 133.609 28.9919 133.609C28.6902 133.401 28.3923 133.212 28.0982 133.026L27.8116 132.856C27.6155 132.739 27.4345 132.622 27.2233 132.516L26.8952 132.342C26.718 132.247 26.5445 132.156 26.371 132.073L26.0354 131.918L25.5339 131.699L25.2058 131.566C25.0399 131.502 24.8739 131.441 24.7118 131.385L24.4026 131.279C24.2329 131.226 24.0632 131.176 23.8972 131.131L23.6219 131.055C23.4334 131.01 23.2448 130.972 23.0601 130.934L22.8602 130.893C22.6075 130.847 22.3586 130.813 22.106 130.791C20.5629 130.625 19.0034 130.865 17.5807 131.487C17.6561 129.678 17.9578 128.188 18.5914 127.265L18.4368 127.212L18.384 127.265C18.384 127.265 18.1992 127.306 17.9088 127.359C17.8172 127.506 17.7353 127.659 17.6637 127.817C17.7904 127.177 18.0347 126.567 18.384 126.016L18.2293 125.963C18.4518 125.733 19.2588 124.738 18.1766 123.107C16.9321 121.238 14.6544 122.691 14.6544 122.691C14.4738 123.308 14.3551 123.942 14.2999 124.582C14.1265 124.511 14.002 124.458 13.9228 124.416C12.8316 128.279 12.2373 132.266 12.1542 136.28C8.04753 142.129 6.35056 150.762 6.01871 152.623L5.99231 152.771C5.96969 152.907 5.95837 152.979 5.95837 152.979L16.6342 153.228C16.6342 153.266 16.6342 153.3 16.6342 153.338V170.298L8.86208 186.789C8.86208 186.789 11.8186 186.883 16.2684 187.454L15.039 196.273L14.628 198.747H22.0268C22.8489 197.098 18.7384 196.273 18.7384 196.273H18.6479L20.2506 188.045C20.9596 188.163 21.6887 188.289 22.4378 188.423C23.5362 188.636 24.6496 188.763 25.7677 188.801C26.6933 188.834 27.6201 188.793 28.5394 188.68C29.0824 193.141 28.3697 195.804 28.2339 196.246H28.1924L27.7814 198.721H35.1802C35.8967 197.283 32.8648 196.47 32.0766 196.288L32.1106 196.046C32.4911 193.264 32.5884 190.45 32.4009 187.647C33.3557 187.259 34.2458 186.727 35.0407 186.07L35.1425 185.979L35.1727 185.949L29.6632 170.438C30.6927 166.049 27.1102 161.442 29.0221 159.138C30.934 156.834 29.7763 153.894 29.55 153.391C34.7239 151.121 45.181 145.446 48.1149 135.61C48.3304 134.919 48.5054 134.215 48.6391 133.503C48.6391 133.503 50.1173 132.902 49.4762 130.749Z" fill="url(#paint15_linear)"/>
</g>
<path d="M15.1144 127.287C15.1144 127.287 9.50684 145.034 18.9118 154.859L21.627 152.774C21.627 152.774 16.0685 133.405 19.1796 128.857C13.6889 127.023 15.1144 127.287 15.1144 127.287Z" fill="#EB5757"/>
<path d="M18.9909 128.854C18.9909 128.854 20.1223 127.9 18.9909 126.183C17.8596 124.465 15.7592 125.804 15.7592 125.804C15.7592 125.804 15.0049 128.282 15.7592 128.854C16.5134 129.425 18.9909 128.854 18.9909 128.854Z" fill="#F6B9AD"/>
<path d="M20.9858 149.059C20.9858 150.534 22.1769 151.73 23.6463 151.73C25.1156 151.73 26.3068 150.534 26.3068 149.059V146.491C26.3068 145.016 25.1156 143.82 23.6463 143.82C22.1769 143.82 20.9858 145.016 20.9858 146.491V149.059Z" fill="#F6B9AD"/>
<path opacity="0.2" d="M21.2462 153.917C21.2462 153.917 15.7555 134.786 18.746 130.083C19.0099 130.034 19.1796 129.996 19.1796 129.996L19.2287 129.951L19.3682 129.996C16.2571 134.536 21.8156 153.913 21.8156 153.913L19.1004 155.998L18.8629 155.74L21.2462 153.917Z" fill="white"/>
<path d="M23.5502 146.585C26.8033 146.585 29.4405 143.94 29.4405 140.676C29.4405 137.412 26.8033 134.767 23.5502 134.767C20.297 134.767 17.6598 137.412 17.6598 140.676C17.6598 143.94 20.297 146.585 23.5502 146.585Z" fill="#F6B9AD"/>
<path opacity="0.2" d="M25.6431 149.063V146.491C25.6428 146.302 25.6226 146.115 25.5827 145.931C26.733 145.338 27.657 144.382 28.2119 143.21C28.7669 142.039 28.9221 140.716 28.6536 139.447C28.3851 138.178 27.7078 137.033 26.7262 136.188C25.7445 135.344 24.5132 134.847 23.222 134.774H23.5539C24.8752 134.774 26.1583 135.219 27.1969 136.038C28.2355 136.858 28.9694 138.004 29.2805 139.292C29.5916 140.58 29.462 141.936 28.9124 143.141C28.3628 144.347 27.4252 145.332 26.2502 145.938C26.2901 146.122 26.3103 146.31 26.3105 146.498V149.071C26.314 149.451 26.2359 149.827 26.0817 150.174C25.9274 150.52 25.7006 150.83 25.4166 151.081C25.1326 151.332 24.798 151.519 24.4356 151.629C24.0733 151.739 23.6915 151.77 23.3163 151.719C23.9595 151.635 24.5504 151.32 24.9786 150.831C25.4067 150.342 25.6429 149.714 25.6431 149.063Z" fill="white"/>
<path d="M17.5656 170.128C17.5656 170.128 28.9277 171.414 29.3463 170.128C30.7039 165.966 27.0837 161.468 28.8938 159.27C30.7793 157 29.3463 153.924 29.3463 153.924C29.3463 152.357 28.7257 150.854 27.621 149.746C26.5164 148.638 25.0181 148.015 23.4559 148.015C21.8937 148.015 20.3955 148.638 19.2908 149.746C18.1861 150.854 17.5656 152.357 17.5656 153.924V170.128Z" fill="#EB5757"/>
<path opacity="0.2" d="M28.9088 159.27C30.7943 157 29.3613 153.924 29.3613 153.924C29.3613 152.357 28.7407 150.854 27.6361 149.746C26.5314 148.638 25.0332 148.015 23.471 148.015C23.3428 148.015 23.2183 148.015 23.0939 148.034C24.5869 148.129 25.9878 148.791 27.0118 149.885C28.0359 150.979 28.6063 152.424 28.6071 153.924C28.6071 153.924 30.0401 157 28.1546 159.27C26.3294 161.468 29.9647 165.962 28.6071 170.128C28.4789 170.525 27.3061 170.676 25.7487 170.699C27.6681 170.718 29.2143 170.589 29.3613 170.128C30.734 165.959 27.0836 161.468 28.9088 159.27Z" fill="white"/>
<path d="M26.9365 169.749C31.0847 175.647 32.9212 184.56 31.7333 193.133L31.6994 193.39H28.1583C28.1583 193.39 29.2557 190.148 28.1583 184.432C27.4857 181.005 25.5729 177.948 22.7884 175.852L19.3718 193.39H16.0759L19.3718 169.749H26.9365Z" fill="#F6B9AD"/>
<path d="M46.9079 135.75C46.9079 135.75 48.2768 135.175 47.6885 133.197C47.1002 131.218 44.7094 131.884 44.7094 131.884C44.7094 131.884 43.2576 134.029 43.8195 134.801C44.3813 135.573 46.9079 135.75 46.9079 135.75Z" fill="#F6B9AD"/>
<path d="M26.7518 154.878C26.7518 154.878 44.4041 149.139 46.9043 135.75L43.6348 134.744C43.6348 134.744 30.6435 149.294 25.1567 149.396C19.6698 149.498 26.7518 154.878 26.7518 154.878Z" fill="#EB5757"/>
<path opacity="0.2" d="M46.3046 135.765L46.8514 135.932C44.3512 149.32 26.699 155.059 26.699 155.059L26.386 154.814C28.4714 154.087 43.9741 148.254 46.3046 135.765Z" fill="white"/>
<g opacity="0.2">
<path opacity="0.2" d="M22.0305 175.852L18.6139 193.39H19.3681L22.6866 176.366C22.4768 176.183 22.2578 176.012 22.0305 175.852Z" fill="white"/>
<path opacity="0.2" d="M26.9365 169.749H26.1823C30.3304 175.647 32.1669 184.56 30.979 193.133L30.9451 193.39H31.6993L31.7332 193.133C32.9211 184.56 31.0922 175.647 26.9365 169.749Z" fill="white"/>
</g>
<path opacity="0.2" d="M46.5422 135.633C46.5422 135.633 47.9111 135.058 47.3228 133.079C47.2513 132.8 47.115 132.542 46.9249 132.325C46.7348 132.109 46.4964 131.941 46.2292 131.835C46.5751 131.898 46.8958 132.059 47.1537 132.299C47.4115 132.539 47.5958 132.848 47.6848 133.189C48.2731 135.164 46.9042 135.743 46.9042 135.743C46.1546 135.685 45.4136 135.546 44.6943 135.327C45.3007 135.48 45.9188 135.583 46.5422 135.633Z" fill="white"/>
<path d="M17.5655 169.485L10.4005 184.617C14.5791 184.826 18.7376 185.332 22.845 186.13C30.7642 187.644 34.5352 183.86 34.5352 183.86L29.4254 169.485H17.5655Z" fill="#263238"/>
<path d="M19.466 193.318C19.466 193.318 23.237 194.075 22.4828 195.588H15.6949L16.0721 193.318H19.466Z" fill="#EB5757"/>
<path d="M31.5335 193.318C31.5335 193.318 35.3045 194.075 34.5503 195.588H27.7625L28.1396 193.318H31.5335Z" fill="#EB5757"/>
<path d="M28.8937 135.815C28.8937 135.815 19.8432 148.677 23.9914 153.974L7.77588 153.595C7.77588 153.595 12.3011 124.465 28.8937 135.815Z" fill="#FCCC63"/>
<path opacity="0.2" d="M28.8937 135.815C26.5557 134.214 24.459 133.42 22.5772 133.235C24.1593 133.733 25.6542 134.476 27.0082 135.436C27.0082 135.436 17.9577 148.299 22.1058 153.595L7.83245 153.262C7.79474 153.478 7.77588 153.595 7.77588 153.595L23.9914 153.974C19.8432 148.677 28.8937 135.815 28.8937 135.815Z" fill="white"/>
<path opacity="0.2" d="M29.4444 169.485H28.3131L33.4228 183.86C33.4228 183.86 30.9867 186.301 25.9185 186.475C31.7523 186.664 34.5541 183.86 34.5541 183.86L29.4444 169.485Z" fill="white"/>
<path opacity="0.2" d="M19.466 193.318H18.7118C18.7118 193.318 22.4828 194.075 21.7286 195.588H22.4828C23.237 194.075 19.466 193.318 19.466 193.318Z" fill="white"/>
<path opacity="0.2" d="M31.5335 193.318H30.7793C30.7793 193.318 34.5503 194.075 33.7961 195.588H34.5503C35.3045 194.075 31.5335 193.318 31.5335 193.318Z" fill="white"/>
<path d="M333.217 63.4356H188.786V68.9212H333.217V63.4356Z" fill="#F5F5F5"/>
<path d="M336 61.6841H185.912V249.328H336V61.6841Z" fill="url(#paint16_linear)"/>
<path d="M333.217 68.9212H188.786V242.756H333.217V68.9212Z" fill="white"/>
<path d="M192.135 67.5971C192.864 67.5971 193.454 67.0043 193.454 66.273C193.454 65.5417 192.864 64.9489 192.135 64.9489C191.406 64.9489 190.815 65.5417 190.815 66.273C190.815 67.0043 191.406 67.5971 192.135 67.5971Z" fill="#EB5757"/>
<path d="M195.762 67.5971C196.491 67.5971 197.082 67.0043 197.082 66.273C197.082 65.5417 196.491 64.9489 195.762 64.9489C195.033 64.9489 194.443 65.5417 194.443 66.273C194.443 67.0043 195.033 67.5971 195.762 67.5971Z" fill="#FFFF00"/>
<path d="M199.394 67.5971C200.123 67.5971 200.714 67.0043 200.714 66.273C200.714 65.5417 200.123 64.9489 199.394 64.9489C198.665 64.9489 198.074 65.5417 198.074 66.273C198.074 67.0043 198.665 67.5971 199.394 67.5971Z" fill="#219653"/>
<g opacity="0.2">
<path opacity="0.2" d="M324.544 76.6766H197.837V80.0814H324.544V76.6766Z" fill="#2F80ED"/>
</g>
<path d="M251.762 91.4309H197.082V149.691H251.762V91.4309Z" fill="url(#paint17_linear)"/>
<path d="M250.631 93.3224H198.214V147.8H250.631V93.3224Z" fill="white"/>
<path d="M324.544 120.561H269.863V178.821H324.544V120.561Z" fill="url(#paint18_linear)"/>
<path d="M323.412 122.453H270.995V176.93H323.412V122.453Z" fill="white"/>
<path d="M326.806 192.441H198.214V232.542H326.806V192.441Z" fill="url(#paint19_linear)"/>
<path opacity="0.5" d="M324.543 195.089H200.853V231.029H324.543V195.089Z" fill="#2F80ED"/>
<path opacity="0.5" d="M203.87 198.494H324.543V195.089H200.853V231.029H203.87V198.494Z" fill="white"/>
<path d="M241.946 105.258C238.37 101.088 233.445 98.3109 228.035 97.4138C222.624 96.5168 217.071 97.5564 212.347 100.351C207.623 103.145 204.028 107.517 202.192 112.701C200.355 117.885 200.394 123.552 202.301 128.711C204.208 133.869 207.861 138.191 212.623 140.921C217.385 143.65 222.951 144.614 228.349 143.643C233.747 142.672 238.633 139.828 242.153 135.608C245.673 131.389 247.602 126.063 247.603 120.561C247.61 114.944 245.602 109.513 241.946 105.258ZM232.519 134.566C229.441 136.396 225.847 137.153 222.296 136.72C218.745 136.287 215.436 134.688 212.885 132.172C210.334 129.656 208.684 126.364 208.191 122.809C207.699 119.255 208.393 115.637 210.163 112.518C211.934 109.4 214.683 106.957 217.982 105.569C221.281 104.181 224.945 103.927 228.403 104.846C231.862 105.764 234.92 107.804 237.102 110.648C239.284 113.492 240.468 116.98 240.468 120.569C240.477 123.394 239.749 126.172 238.356 128.627C236.964 131.083 234.955 133.13 232.53 134.566H232.519Z" fill="url(#paint20_linear)"/>
<path d="M235.943 110.445L241.09 106C239.005 103.563 236.418 101.608 233.509 100.269C230.599 98.9296 227.435 98.2377 224.234 98.2406V105.05C226.458 105.05 228.656 105.531 230.677 106.463C232.698 107.394 234.494 108.752 235.943 110.445Z" fill="#EB5757"/>
<path d="M224.234 136.068C222.032 136.069 219.856 135.596 217.853 134.68L215.051 140.888C218.314 142.372 221.887 143.045 225.464 142.847C229.042 142.649 232.519 141.588 235.6 139.753L232.13 133.893C229.743 135.321 227.014 136.073 224.234 136.068Z" fill="#219653"/>
<path d="M246.483 120.557C246.49 115.211 244.575 110.041 241.09 105.996L235.943 110.441C237.421 112.155 238.506 114.174 239.121 116.355C239.736 118.536 239.866 120.826 239.503 123.063C239.139 125.3 238.29 127.43 237.017 129.302C235.743 131.174 234.075 132.742 232.13 133.897L235.6 139.757C238.918 137.778 241.666 134.968 243.574 131.602C245.482 128.236 246.485 124.43 246.483 120.557Z" fill="#F2C94C"/>
<path d="M208.773 120.557C208.773 116.443 210.401 112.498 213.301 109.589C216.201 106.681 220.133 105.046 224.234 105.046V98.2367C219.149 98.2369 214.218 99.9843 210.261 103.188C206.304 106.392 203.56 110.859 202.487 115.845C201.413 120.831 202.075 126.036 204.361 130.592C206.647 135.149 210.42 138.782 215.051 140.888L217.853 134.68C215.147 133.45 212.852 131.464 211.241 128.959C209.631 126.455 208.774 123.538 208.773 120.557Z" fill="#2F80ED"/>
<path d="M318.133 130.397H278.16V137.207H318.133V130.397Z" fill="url(#paint21_linear)"/>
<path d="M317.756 130.775H278.537V136.829H317.756V130.775Z" fill="#2F80ED"/>
<path d="M307.197 140.99H278.537V147.043H307.197V140.99Z" fill="#EB5757"/>
<path d="M298.146 151.204H278.537V157.257H298.146V151.204Z" fill="#219653"/>
<path d="M313.985 161.419H278.537V167.472H313.985V161.419Z" fill="#F2C94C"/>
<path d="M254.402 158.771H198.214V162.176H254.402V158.771Z" fill="#F5F5F5"/>
<path d="M229.89 164.445H198.214V167.85H229.89V164.445Z" fill="#F5F5F5"/>
<path d="M246.483 164.445H235.547V167.85H246.483V164.445Z" fill="#F5F5F5"/>
<path d="M246.483 176.93H235.547V180.335H246.483V176.93Z" fill="#F5F5F5"/>
<path d="M229.89 175.795H198.214V179.2H229.89V175.795Z" fill="#F5F5F5"/>
<path d="M254.402 170.12H198.214V173.525H254.402V170.12Z" fill="#F5F5F5"/>
<path d="M325.298 91.8092H269.109V95.214H325.298V91.8092Z" fill="#F5F5F5"/>
<path d="M300.786 97.4839H269.109V100.889H300.786V97.4839Z" fill="#F5F5F5"/>
<path d="M317.379 97.4839H306.443V100.889H317.379V97.4839Z" fill="#F5F5F5"/>
<path d="M317.379 109.968H306.443V113.373H317.379V109.968Z" fill="#F5F5F5"/>
<path d="M300.786 108.833H269.109V112.238H300.786V108.833Z" fill="#F5F5F5"/>
<path d="M325.298 103.159H269.109V106.563H325.298V103.159Z" fill="#F5F5F5"/>
<path d="M286.833 264.699C289.124 264.699 290.981 262.835 290.981 260.537C290.981 258.239 289.124 256.376 286.833 256.376C284.542 256.376 282.685 258.239 282.685 260.537C282.685 262.835 284.542 264.699 286.833 264.699Z" fill="url(#paint22_linear)"/>
<path d="M286.833 263.564C288.499 263.564 289.85 262.209 289.85 260.537C289.85 258.866 288.499 257.511 286.833 257.511C285.167 257.511 283.816 258.866 283.816 260.537C283.816 262.209 285.167 263.564 286.833 263.564Z" fill="#EB5757"/>
<path d="M293.998 214.383H164.274V260.159H293.998V214.383Z" fill="url(#paint23_linear)"/>
<path d="M291.735 216.274H168.045V252.214H291.735V216.274Z" fill="white"/>
<path d="M172.193 245.405H286.833" stroke="#2F80ED" stroke-width="2.93713" stroke-miterlimit="10"/>
<path d="M190.294 223.462H173.325V244.27H190.294V223.462Z" fill="url(#paint24_linear)"/>
<path d="M189.352 224.408H174.267V243.702H189.352V224.408Z" fill="#2F80ED"/>
<path d="M283.816 238.217H268.732V244.27H283.816V238.217Z" fill="#219653"/>
<path d="M255.534 230.272H240.449V243.891H255.534V230.272Z" fill="#F2C94C"/>
<path d="M222.348 232.542H207.264V243.891H222.348V232.542Z" fill="#EB5757"/>
<path d="M291.735 252.214H168.045V257.511H291.735V252.214Z" fill="#EB5757"/>
<path d="M173.325 264.699C175.616 264.699 177.473 262.835 177.473 260.537C177.473 258.239 175.616 256.376 173.325 256.376C171.034 256.376 169.177 258.239 169.177 260.537C169.177 262.835 171.034 264.699 173.325 264.699Z" fill="url(#paint25_linear)"/>
<path d="M173.325 263.564C174.991 263.564 176.342 262.209 176.342 260.537C176.342 258.866 174.991 257.511 173.325 257.511C171.659 257.511 170.308 258.866 170.308 260.537C170.308 262.209 171.659 263.564 173.325 263.564Z" fill="#EB5757"/>
<path d="M168.045 217.788H165.028V257.511H168.045V217.788Z" fill="#EB5757"/>
<path opacity="0.2" d="M168.045 217.788H165.028V257.511H168.045V217.788Z" fill="black"/>
<path d="M168.245 222.01C168.245 221.968 168.245 221.93 168.245 221.889C168.245 221.847 168.245 221.764 168.245 221.703C168.245 221.643 168.245 221.624 168.222 221.586C168.2 221.548 168.196 221.472 168.177 221.419C168.158 221.367 168.155 221.348 168.139 221.31C168.124 221.272 168.094 221.204 168.072 221.151L168.026 221.056C167.996 221.003 167.962 220.95 167.928 220.901L167.879 220.829C167.83 220.761 167.777 220.695 167.721 220.633C167.42 220.311 167.064 220.047 166.669 219.853C166.978 219.52 167.208 219.122 167.344 218.688C167.383 218.572 167.413 218.453 167.434 218.332C167.434 218.295 167.434 218.257 167.434 218.223C167.444 218.15 167.451 218.077 167.453 218.003C167.453 217.962 167.453 217.924 167.453 217.882C167.453 217.841 167.453 217.757 167.453 217.697C167.453 217.636 167.453 217.617 167.431 217.58C167.408 217.542 167.404 217.466 167.385 217.413C167.366 217.36 167.363 217.341 167.348 217.303C167.332 217.266 167.302 217.198 167.28 217.145L167.234 217.05C167.204 216.997 167.17 216.944 167.136 216.895L167.087 216.823C167.038 216.755 166.985 216.689 166.929 216.626C166.553 216.231 166.096 215.921 165.59 215.718C165.59 215.718 163.196 216.607 163.037 217.583C161.28 217.962 151.038 220.099 144.005 219.929L143.952 219.789C143.952 218.648 143.643 217.528 143.056 216.55C142.469 215.572 141.628 214.773 140.622 214.239V211.863C140.628 211.762 140.628 211.661 140.622 211.561C140.612 211.464 140.597 211.368 140.577 211.273L140.622 211.247L140.815 211.141L141.094 210.97L141.271 210.853C141.402 210.762 141.527 210.667 141.648 210.566L141.791 210.441C141.878 210.365 141.961 210.29 142.044 210.21L142.191 210.066C142.294 209.96 142.392 209.852 142.485 209.741L142.587 209.612C142.675 209.501 142.759 209.388 142.84 209.272L142.941 209.117C143.014 209.003 143.085 208.887 143.153 208.769L143.217 208.655C143.3 208.504 143.375 208.345 143.443 208.186L143.5 208.042C143.552 207.914 143.6 207.788 143.643 207.664L143.688 207.524C143.741 207.35 143.786 207.176 143.824 206.998C143.824 206.964 143.824 206.926 143.843 206.892C143.87 206.741 143.893 206.588 143.911 206.435C143.911 206.382 143.911 206.332 143.911 206.279C143.911 206.09 143.941 205.901 143.941 205.708C143.941 204.633 143.664 203.576 143.137 202.64C143.541 202.542 143.786 202.462 143.756 202.424C143.601 202.216 143.447 202.02 143.285 201.83L143.13 201.653C143.017 201.524 142.907 201.403 142.794 201.274L142.613 201.089C142.5 200.975 142.387 200.869 142.274 200.767L142.097 200.608C141.953 200.487 141.81 200.37 141.667 200.257L141.572 200.181C141.399 200.052 141.226 199.931 141.048 199.803L140.852 199.682C140.739 199.61 140.622 199.542 140.505 199.481L140.271 199.36L139.947 199.205L139.71 199.099C139.596 199.05 139.48 199.008 139.363 198.967L139.148 198.887C138.974 198.83 138.801 198.777 138.627 198.732L138.36 198.672L138.069 198.611L137.779 198.566L137.511 198.535L137.213 198.509H136.957H136.659C136.495 198.509 136.332 198.516 136.169 198.532C132.311 198.849 128.932 202.228 128.932 207.611V212.052H134.966V214.073C133.881 214.575 132.963 215.377 132.318 216.386C131.674 217.395 131.331 218.568 131.33 219.766V236.983L126.209 260.586H126.141L125.135 265.092L132.36 266.265L132.673 266.314C133.427 265.989 132.164 264.464 131.594 263.287C131.536 263.165 131.486 263.038 131.443 262.909C131.364 262.672 131.316 262.425 131.3 262.175L136.851 243.906H136.825L136.957 243.479C136.957 243.479 144.024 246.505 145.841 252.592C147.316 257.511 146.399 260.711 146 261.748H145.973V261.808C145.894 262.005 145.838 262.115 145.838 262.115H145.973V265.455H153.613C154.322 265.096 152.818 264.048 152.067 263.185C151.822 262.912 151.65 262.58 151.57 262.221H151.698L151.758 261.948C152.719 257.473 152.498 252.823 151.118 248.459C149.739 244.096 147.248 240.169 143.892 237.067C143.906 237.047 143.917 237.025 143.926 237.002C144.647 234.788 145.091 232.493 145.249 230.17C151.091 230.73 158.863 230.329 164.674 225.812C165.229 225.391 165.759 224.939 166.262 224.457C166.763 224.419 167.642 224.14 168.128 222.717C168.167 222.601 168.197 222.482 168.219 222.361C168.219 222.324 168.219 222.286 168.219 222.252C168.232 222.172 168.241 222.091 168.245 222.01Z" fill="url(#paint26_linear)"/>
<path d="M137.639 228.676C137.639 228.676 155.326 234.316 165.123 224.892L163.045 222.165C163.045 222.165 144.039 226.413 139.51 223.3C134.981 220.186 137.639 228.676 137.639 228.676Z" fill="#2F80ED"/>
<path opacity="0.2" d="M164.625 224.537L164.972 224.991C155.167 234.418 137.489 228.774 137.489 228.774C137.489 228.774 137.443 228.63 137.375 228.396C139.483 229.027 155.484 233.344 164.625 224.537Z" fill="white"/>
<path d="M164.746 224.889C164.746 224.889 166.194 225.218 166.861 223.269C167.529 221.321 165.202 220.462 165.202 220.462C165.202 220.462 162.777 221.359 162.785 222.312C162.792 223.266 164.746 224.889 164.746 224.889Z" fill="#985454"/>
<path opacity="0.2" d="M164.516 224.582C164.516 224.582 165.964 224.911 166.631 222.963C166.735 222.694 166.773 222.404 166.744 222.118C166.714 221.831 166.617 221.556 166.461 221.314C166.706 221.567 166.874 221.885 166.945 222.231C167.016 222.577 166.987 222.936 166.861 223.266C166.194 225.218 164.746 224.885 164.746 224.885C164.17 224.4 163.649 223.853 163.192 223.254C163.596 223.733 164.038 224.177 164.516 224.582Z" fill="white"/>
<path d="M146.015 260.004H151.253C151.233 260.251 151.268 260.5 151.353 260.733C151.438 260.966 151.573 261.178 151.747 261.354C152.452 262.171 153.87 263.159 153.203 263.496H146.015V260.004Z" fill="#2F80ED"/>
<path opacity="0.2" d="M151.366 261.354C151.192 261.178 151.057 260.966 150.972 260.733C150.887 260.5 150.853 260.251 150.872 260.004H151.249C151.23 260.251 151.264 260.5 151.349 260.733C151.434 260.966 151.569 261.178 151.743 261.354C152.448 262.171 153.866 263.159 153.199 263.496H152.822C153.489 263.159 152.071 262.175 151.366 261.354Z" fill="white"/>
<path d="M127.359 258.922L132.262 259.727C132.126 260.313 132.205 260.928 132.484 261.46C133.02 262.595 134.223 264.01 133.499 264.316L126.402 263.182L127.359 258.922Z" fill="#2F80ED"/>
<path opacity="0.2" d="M132.111 261.456C131.832 260.924 131.753 260.309 131.888 259.724L127.344 258.967V258.907L132.247 259.712C132.111 260.298 132.19 260.913 132.469 261.445C133.005 262.58 134.208 263.995 133.484 264.301L133.186 264.252C133.744 263.881 132.624 262.523 132.111 261.456Z" fill="white"/>
<path d="M135.626 215.643C135.626 217.118 136.817 218.314 138.286 218.314C139.755 218.314 140.947 217.118 140.947 215.643V213.074C140.947 211.599 139.755 210.403 138.286 210.403C136.817 210.403 135.626 211.599 135.626 213.074V215.643Z" fill="#985454"/>
<path d="M138.19 213.168C141.443 213.168 144.08 210.523 144.08 207.259C144.08 203.996 141.443 201.35 138.19 201.35C134.937 201.35 132.299 203.996 132.299 207.259C132.299 210.523 134.937 213.168 138.19 213.168Z" fill="#985454"/>
<path opacity="0.2" d="M140.283 215.646V213.074C140.282 212.886 140.262 212.698 140.222 212.514C141.373 211.921 142.297 210.965 142.852 209.794C143.407 208.622 143.562 207.299 143.293 206.03C143.025 204.761 142.347 203.616 141.366 202.772C140.384 201.927 139.153 201.43 137.862 201.357H138.194C139.515 201.357 140.798 201.802 141.837 202.622C142.875 203.441 143.609 204.587 143.92 205.875C144.231 207.163 144.102 208.519 143.552 209.725C143.002 210.93 142.065 211.915 140.89 212.522C140.93 212.705 140.95 212.893 140.95 213.081V215.654C140.954 216.034 140.876 216.41 140.721 216.757C140.567 217.104 140.34 217.413 140.056 217.664C139.772 217.916 139.438 218.103 139.075 218.213C138.713 218.323 138.331 218.353 137.956 218.302C138.599 218.219 139.19 217.903 139.618 217.414C140.046 216.925 140.283 216.297 140.283 215.646Z" fill="white"/>
<path d="M132.205 236.711C132.205 236.711 143.567 237.997 143.986 236.711C146.931 227.654 143.986 220.508 143.986 220.508C143.986 218.941 143.365 217.437 142.261 216.329C141.156 215.221 139.658 214.598 138.096 214.598C136.533 214.598 135.035 215.221 133.93 216.329C132.826 217.437 132.205 218.941 132.205 220.508V236.711Z" fill="#2F80ED"/>
<path d="M132.205 236.711L127.073 260.352H132.205L137.526 242.813C137.526 242.813 144.178 245.673 145.886 251.393C147.595 257.113 145.886 260.352 145.886 260.352H151.407L151.464 260.094C152.371 255.882 152.158 251.505 150.848 247.401C149.538 243.297 147.175 239.61 143.997 236.711" fill="#263238"/>
<path opacity="0.2" d="M143.322 236.711C146.267 227.654 143.322 220.508 143.322 220.508C143.322 219.006 142.753 217.561 141.73 216.466C140.707 215.371 139.306 214.707 137.813 214.61C137.937 214.61 138.065 214.61 138.19 214.61C139.752 214.61 141.25 215.232 142.355 216.341C143.46 217.449 144.08 218.952 144.08 220.519C144.08 220.519 147.025 227.669 144.08 236.722C143.929 237.184 142.376 237.312 140.445 237.293C142.014 237.259 143.194 237.108 143.322 236.711Z" fill="white"/>
<g opacity="0.2">
<path opacity="0.2" d="M137.428 243.229L132.205 260.446H131.451L136.772 242.908C136.772 242.908 137.017 243.014 137.428 243.229Z" fill="white"/>
<path opacity="0.2" d="M143.228 236.806H143.982C147.16 239.705 149.523 243.391 150.833 247.495C152.143 251.599 152.356 255.977 151.449 260.189L151.392 260.446H150.638L150.695 260.189C151.602 255.977 151.389 251.599 150.079 247.495C148.768 243.391 146.406 239.705 143.228 236.806Z" fill="white"/>
</g>
<path d="M136.885 224.892C136.885 224.892 154.571 230.533 164.368 221.109L162.291 218.382C162.291 218.382 143.285 222.63 138.755 219.517C134.226 216.403 136.885 224.892 136.885 224.892Z" fill="#2F80ED"/>
<path opacity="0.2" d="M163.871 220.754L164.218 221.208C154.413 230.635 136.734 224.991 136.734 224.991C136.734 224.991 136.689 224.847 136.621 224.612C138.729 225.244 154.73 229.561 163.871 220.754Z" fill="white"/>
<path d="M163.991 221.105C163.991 221.105 165.44 221.435 166.107 219.486C166.775 217.538 164.448 216.679 164.448 216.679C164.448 216.679 162.023 217.576 162.031 218.529C162.038 219.483 163.991 221.105 163.991 221.105Z" fill="#985454"/>
<path opacity="0.2" d="M163.761 220.799C163.761 220.799 165.209 221.128 165.877 219.18C165.98 218.911 166.019 218.621 165.989 218.335C165.96 218.048 165.863 217.772 165.707 217.53C165.952 217.784 166.12 218.102 166.191 218.448C166.262 218.794 166.233 219.153 166.107 219.482C165.439 221.435 163.991 221.102 163.991 221.102C163.416 220.617 162.895 220.07 162.438 219.471C162.841 219.95 163.284 220.394 163.761 220.799Z" fill="white"/>
<path d="M138.631 205.299L138.254 213.244H129.958V209.026C129.958 200.555 138.884 197.34 143.911 204.146C144.035 204.331 138.631 205.299 138.631 205.299Z" fill="#263238"/>
<path opacity="0.2" d="M136.768 200.51C138.884 200.684 141.06 201.842 142.779 204.168C142.904 204.335 137.5 205.303 137.5 205.303L137.123 213.248H138.254L138.631 205.303C138.631 205.303 144.035 204.335 143.911 204.168C141.885 201.422 139.223 200.325 136.768 200.51Z" fill="white"/>
<defs>
<linearGradient id="paint0_linear" x1="80.557" y1="183.86" x2="80.557" y2="0" gradientUnits="userSpaceOnUse">
<stop stop-color="#808080" stop-opacity="0.25"/>
<stop offset="0.54" stop-color="#808080" stop-opacity="0.12"/>
<stop offset="1" stop-color="#808080" stop-opacity="0.1"/>
</linearGradient>
<linearGradient id="paint1_linear" x1="4368.24" y1="1689.17" x2="4368.24" y2="1643.39" gradientUnits="userSpaceOnUse">
<stop stop-color="#808080" stop-opacity="0.25"/>
<stop offset="0.54" stop-color="#808080" stop-opacity="0.12"/>
<stop offset="1" stop-color="#808080" stop-opacity="0.1"/>
</linearGradient>
<linearGradient id="paint2_linear" x1="4368.24" y1="1943.42" x2="4368.24" y2="1897.64" gradientUnits="userSpaceOnUse">
<stop stop-color="#808080" stop-opacity="0.25"/>
<stop offset="0.54" stop-color="#808080" stop-opacity="0.12"/>
<stop offset="1" stop-color="#808080" stop-opacity="0.1"/>
</linearGradient>
<linearGradient id="paint3_linear" x1="6329.94" y1="1943.42" x2="6329.94" y2="1897.64" gradientUnits="userSpaceOnUse">
<stop stop-color="#808080" stop-opacity="0.25"/>
<stop offset="0.54" stop-color="#808080" stop-opacity="0.12"/>
<stop offset="1" stop-color="#808080" stop-opacity="0.1"/>
</linearGradient>
<linearGradient id="paint4_linear" x1="2408.48" y1="372.639" x2="2408.48" y2="326.863" gradientUnits="userSpaceOnUse">
<stop stop-color="#808080" stop-opacity="0.25"/>
<stop offset="0.54" stop-color="#808080" stop-opacity="0.12"/>
<stop offset="1" stop-color="#808080" stop-opacity="0.1"/>
</linearGradient>
<linearGradient id="paint5_linear" x1="2408.48" y1="440.733" x2="2408.48" y2="394.958" gradientUnits="userSpaceOnUse">
<stop stop-color="#808080" stop-opacity="0.25"/>
<stop offset="0.54" stop-color="#808080" stop-opacity="0.12"/>
<stop offset="1" stop-color="#808080" stop-opacity="0.1"/>
</linearGradient>
<linearGradient id="paint6_linear" x1="2408.48" y1="508.833" x2="2408.48" y2="463.057" gradientUnits="userSpaceOnUse">
<stop stop-color="#808080" stop-opacity="0.25"/>
<stop offset="0.54" stop-color="#808080" stop-opacity="0.12"/>
<stop offset="1" stop-color="#808080" stop-opacity="0.1"/>
</linearGradient>
<linearGradient id="paint7_linear" x1="2408.48" y1="576.929" x2="2408.48" y2="531.153" gradientUnits="userSpaceOnUse">
<stop stop-color="#808080" stop-opacity="0.25"/>
<stop offset="0.54" stop-color="#808080" stop-opacity="0.12"/>
<stop offset="1" stop-color="#808080" stop-opacity="0.1"/>
</linearGradient>
<linearGradient id="paint8_linear" x1="29645.2" y1="18908.9" x2="29645.2" y2="10396.8" gradientUnits="userSpaceOnUse">
<stop stop-color="#808080" stop-opacity="0.25"/>
<stop offset="0.54" stop-color="#808080" stop-opacity="0.12"/>
<stop offset="1" stop-color="#808080" stop-opacity="0.1"/>
</linearGradient>
<linearGradient id="paint9_linear" x1="55616.1" y1="20136.3" x2="54821.4" y2="11432.1" gradientUnits="userSpaceOnUse">
<stop stop-color="#808080" stop-opacity="0.25"/>
<stop offset="0.54" stop-color="#808080" stop-opacity="0.12"/>
<stop offset="1" stop-color="#808080" stop-opacity="0.1"/>
</linearGradient>
<linearGradient id="paint10_linear" x1="2580.48" y1="1559.48" x2="2573.74" y2="1485.64" gradientUnits="userSpaceOnUse">
<stop stop-color="#808080" stop-opacity="0.25"/>
<stop offset="0.54" stop-color="#808080" stop-opacity="0.12"/>
<stop offset="1" stop-color="#808080" stop-opacity="0.1"/>
</linearGradient>
<linearGradient id="paint11_linear" x1="2814.72" y1="1513.86" x2="2807.97" y2="1440.02" gradientUnits="userSpaceOnUse">
<stop stop-color="#808080" stop-opacity="0.25"/>
<stop offset="0.54" stop-color="#808080" stop-opacity="0.12"/>
<stop offset="1" stop-color="#808080" stop-opacity="0.1"/>
</linearGradient>
<linearGradient id="paint12_linear" x1="229.145" y1="163.111" x2="229.145" y2="163.084" gradientUnits="userSpaceOnUse">
<stop stop-color="#808080" stop-opacity="0.25"/>
<stop offset="0.54" stop-color="#808080" stop-opacity="0.12"/>
<stop offset="1" stop-color="#808080" stop-opacity="0.1"/>
</linearGradient>
<linearGradient id="paint13_linear" x1="15018.9" y1="38114.4" x2="15018.9" y2="26818.8" gradientUnits="userSpaceOnUse">
<stop stop-color="#808080" stop-opacity="0.25"/>
<stop offset="0.54" stop-color="#808080" stop-opacity="0.12"/>
<stop offset="1" stop-color="#808080" stop-opacity="0.1"/>
</linearGradient>
<linearGradient id="paint14_linear" x1="48.1735" y1="174.112" x2="48.1735" y2="174.076" gradientUnits="userSpaceOnUse">
<stop stop-color="#808080" stop-opacity="0.25"/>
<stop offset="0.54" stop-color="#808080" stop-opacity="0.12"/>
<stop offset="1" stop-color="#808080" stop-opacity="0.1"/>
</linearGradient>
<linearGradient id="paint15_linear" x1="9974.82" y1="47597.6" x2="9974.82" y2="32089.5" gradientUnits="userSpaceOnUse">
<stop stop-color="#808080" stop-opacity="0.25"/>
<stop offset="0.54" stop-color="#808080" stop-opacity="0.12"/>
<stop offset="1" stop-color="#808080" stop-opacity="0.1"/>
</linearGradient>
<linearGradient id="paint16_linear" x1="104046" y1="123728" x2="104046" y2="30657" gradientUnits="userSpaceOnUse">
<stop stop-color="#808080" stop-opacity="0.25"/>
<stop offset="0.54" stop-color="#808080" stop-opacity="0.12"/>
<stop offset="1" stop-color="#808080" stop-opacity="0.1"/>
</linearGradient>
<linearGradient id="paint17_linear" x1="32738.3" y1="23143.9" x2="32738.3" y2="14171.8" gradientUnits="userSpaceOnUse">
<stop stop-color="#808080" stop-opacity="0.25"/>
<stop offset="0.54" stop-color="#808080" stop-opacity="0.12"/>
<stop offset="1" stop-color="#808080" stop-opacity="0.1"/>
</linearGradient>
<linearGradient id="paint18_linear" x1="43364.4" y1="27659" x2="43364.4" y2="18687" gradientUnits="userSpaceOnUse">
<stop stop-color="#808080" stop-opacity="0.25"/>
<stop offset="0.54" stop-color="#808080" stop-opacity="0.12"/>
<stop offset="1" stop-color="#808080" stop-opacity="0.1"/>
</linearGradient>
<linearGradient id="paint19_linear" x1="89714.1" y1="24841.9" x2="89714.1" y2="20591.1" gradientUnits="userSpaceOnUse">
<stop stop-color="#808080" stop-opacity="0.25"/>
<stop offset="0.54" stop-color="#808080" stop-opacity="0.12"/>
<stop offset="1" stop-color="#808080" stop-opacity="0.1"/>
</linearGradient>
<linearGradient id="paint20_linear" x1="35230.4" y1="22386.9" x2="35230.4" y2="16569.9" gradientUnits="userSpaceOnUse">
<stop stop-color="#808080" stop-opacity="0.25"/>
<stop offset="0.54" stop-color="#808080" stop-opacity="0.12"/>
<stop offset="1" stop-color="#808080" stop-opacity="0.1"/>
</linearGradient>
<linearGradient id="paint21_linear" x1="31881.7" y1="2600.11" x2="31881.7" y2="2477.54" gradientUnits="userSpaceOnUse">
<stop stop-color="#808080" stop-opacity="0.25"/>
<stop offset="0.54" stop-color="#808080" stop-opacity="0.12"/>
<stop offset="1" stop-color="#808080" stop-opacity="0.1"/>
</linearGradient>
<linearGradient id="paint22_linear" x1="6593.01" y1="6079.7" x2="6593.01" y2="5896.6" gradientUnits="userSpaceOnUse">
<stop stop-color="#808080" stop-opacity="0.25"/>
<stop offset="0.54" stop-color="#808080" stop-opacity="0.12"/>
<stop offset="1" stop-color="#808080" stop-opacity="0.1"/>
</linearGradient>
<linearGradient id="paint23_linear" x1="78987.1" y1="31693.6" x2="78987.1" y2="26154.7" gradientUnits="userSpaceOnUse">
<stop stop-color="#808080" stop-opacity="0.25"/>
<stop offset="0.54" stop-color="#808080" stop-opacity="0.12"/>
<stop offset="1" stop-color="#808080" stop-opacity="0.1"/>
</linearGradient>
<linearGradient id="paint24_linear" x1="8354.78" y1="13658.3" x2="8354.78" y2="12513.9" gradientUnits="userSpaceOnUse">
<stop stop-color="#808080" stop-opacity="0.25"/>
<stop offset="0.54" stop-color="#808080" stop-opacity="0.12"/>
<stop offset="1" stop-color="#808080" stop-opacity="0.1"/>
</linearGradient>
<linearGradient id="paint25_linear" x1="3982.31" y1="6079.7" x2="3982.31" y2="5896.6" gradientUnits="userSpaceOnUse">
<stop stop-color="#808080" stop-opacity="0.25"/>
<stop offset="0.54" stop-color="#808080" stop-opacity="0.12"/>
<stop offset="1" stop-color="#808080" stop-opacity="0.1"/>
</linearGradient>
<linearGradient id="paint26_linear" x1="21092" y1="48258.1" x2="26019.5" y2="48258.1" gradientUnits="userSpaceOnUse">
<stop stop-color="#808080" stop-opacity="0.25"/>
<stop offset="0.54" stop-color="#808080" stop-opacity="0.12"/>
<stop offset="1" stop-color="#808080" stop-opacity="0.1"/>
</linearGradient>
</defs>
</svg>
