<svg width="204" height="202" viewBox="0 0 204 202" fill="none" xmlns="http://www.w3.org/2000/svg">
<path d="M200.089 187.414C198.656 190.959 196.893 194.361 194.823 197.574C193.852 199.105 192.787 200.575 191.634 201.974H-164.952C-164.631 201.723 -162.748 200.194 -159.818 197.574C-157.716 195.697 -155.079 193.257 -152.117 190.321L-114.534 182.53C-114.048 182.43 -113.554 182.379 -113.058 182.379L-72.9907 182.321H-72.949L-53.1032 182.295H-53.0583L-36.3089 182.276H-25.3448H-14.1144L31.9047 182.212H31.9785H35.5434H41.8068H49.6264H51.7056L59.6086 182.122H62.2205L85.2076 182.089H92.5491H96.0786L122.631 182.054H130.537L155.687 182.019L176.915 181.993C177.507 181.993 178.096 182.063 178.67 182.202L200.089 187.414Z" fill="#454B69"/>
<path opacity="0.4" d="M-159.818 197.574H194.823C193.852 199.106 192.787 200.575 191.634 201.974H-164.952C-164.637 201.707 -162.754 200.178 -159.818 197.574Z" fill="black"/>
<path d="M70.2679 97.4573L69.5556 97.5957L37.3531 103.802C27.9998 105.605 18.5117 107.417 9.01073 106.725C2.12808 106.223 -4.30215 104.176 -10.9153 102.379C-14.6534 101.362 -18.6161 100.957 -19.8836 96.7587C-21.6323 90.9642 -18.7862 82.3851 -18.1156 76.5133C-17.4738 70.751 -17.0952 64.8438 -18.2375 59.1491C-18.4913 57.8694 -18.8257 56.6071 -19.2386 55.3698C-20.3841 51.9607 -22.1842 48.4164 -21.212 44.9557C-20.4451 42.2098 -18.106 40.2493 -15.9176 38.4337C-11.6308 34.8926 -7.25415 30.9234 -5.55354 25.6149C-4.71928 23.0396 -4.56205 20.2679 -3.66361 17.7119C-1.95979 12.8509 2.3206 9.21646 7.08231 7.29139C11.844 5.36632 17.0806 4.95749 22.2177 4.95749C26.7537 4.95774 31.2847 5.25993 35.7809 5.86208C40.6838 6.50591 45.6316 7.56502 49.9409 10.0052C54.2501 12.4453 57.8824 16.4435 58.8867 21.3173C60.3082 28.2096 56.3615 35.5493 58.4792 42.242C59.5445 45.6253 62.0088 48.3584 63.719 51.4553C65.1135 54.0458 65.9742 56.8913 66.2498 59.8225C66.5255 62.7536 66.2104 65.7104 65.3233 68.5169C63.2762 74.8812 58.2642 81.3195 60.8312 87.4907C62.4644 91.4149 66.6357 93.5106 69.5428 96.6203C69.8016 96.8993 70.0433 97.1783 70.2679 97.4573Z" fill="#454B69"/>
<path opacity="0.1" d="M69.5555 96.6461V97.5958L37.353 103.802C27.9996 105.605 18.5115 107.417 9.01058 106.725C2.12792 106.223 -4.3023 104.176 -10.9154 102.379C-14.6536 101.362 -18.6163 100.957 -19.8837 96.7588C-21.6325 90.9643 -18.7864 82.3852 -18.1157 76.5134C-17.474 70.7511 -7.59442 49.7137 -8.73672 44.019L50.3033 46.5944C50.7012 49.7395 66.3051 65.5263 65.3328 68.5427C63.2857 74.907 58.2737 81.3454 60.8407 87.5165C62.4771 91.4407 66.6484 93.5364 69.5555 96.6461Z" fill="black"/>
<path d="M9.23232 80.7176C9.58207 82.7103 9.76818 84.9025 8.75423 86.6409C7.40337 88.9716 4.45777 89.7152 1.82343 90.2431L-7.32135 92.0781C-7.94384 92.2036 -8.60483 92.3453 -9.07009 92.7734C-9.61877 93.2659 -9.80487 94.045 -9.88509 94.7789C-10.2541 98.1011 -9.08292 101.375 -8.01442 104.539C-5.85497 110.949 -4.04205 117.493 -1.31145 123.677C1.41915 129.862 5.16691 135.765 10.5158 139.899C15.8647 144.032 22.9431 146.234 29.492 144.618C35.1971 143.211 39.8754 139.171 43.9087 134.887C47.2361 131.346 50.3486 127.483 51.9625 122.889C53.076 119.734 53.4385 116.373 53.7883 113.045C54.3295 107.941 54.8707 102.838 55.4119 97.7341C55.6654 95.3391 55.8322 92.6446 54.2824 90.8065C53.6022 89.9985 52.6781 89.4609 51.7347 88.9619C48.2244 87.0916 44.528 85.5464 41.2615 83.2929C37.9951 81.0395 35.0976 77.9362 34.1062 74.0861C33.5125 71.7747 33.6184 69.2573 32.6077 67.1037C31.4782 64.6893 29.0781 63.054 26.5112 62.3361C23.9442 61.6182 21.2361 61.7148 18.5921 62.0142C15.9481 62.3136 5.75731 63.0797 4.66314 66.0703C4.07595 67.6799 6.51135 71.1341 7.08892 72.7179C8.03963 75.3151 8.75695 77.9923 9.23232 80.7176Z" fill="#EFB7B9"/>
<path opacity="0.1" d="M9.23232 80.7176C9.58207 82.7103 9.76818 84.9025 8.75423 86.6409C7.40337 88.9716 4.45777 89.7152 1.82343 90.2431L-7.32135 92.0781C-7.94384 92.2036 -8.60483 92.3453 -9.07009 92.7734C-9.61877 93.2659 -9.80487 94.045 -9.88509 94.7789C-10.2541 98.1011 -9.08292 101.375 -8.01442 104.539C-5.85497 110.949 -4.04205 117.493 -1.31145 123.677C1.41915 129.862 5.16691 135.765 10.5158 139.899C15.8647 144.032 22.9431 146.234 29.492 144.618C35.1971 143.211 39.8754 139.171 43.9087 134.887C47.2361 131.346 50.3486 127.483 51.9625 122.889C53.076 119.734 53.4385 116.373 53.7883 113.045C54.3295 107.941 54.8707 102.838 55.4119 97.7341C55.6654 95.3391 55.8322 92.6446 54.2824 90.8065C53.6022 89.9985 52.6781 89.4609 51.7347 88.9619C48.2244 87.0916 44.528 85.5464 41.2615 83.2929C37.9951 81.0395 35.0976 77.9362 34.1062 74.0861C33.5125 71.7747 33.6184 69.2573 32.6077 67.1037C31.4782 64.6893 29.0781 63.054 26.5112 62.3361C23.9442 61.6182 21.2361 61.7148 18.5921 62.0142C15.9481 62.3136 5.75731 63.0797 4.66314 66.0703C4.07595 67.6799 6.51135 71.1341 7.08892 72.7179C8.03963 75.3151 8.75695 77.9923 9.23232 80.7176Z" fill="black"/>
<path d="M31.2406 115.723L36.6023 104.333C39.1148 98.996 41.6817 93.3882 41.4154 87.4939C41.3641 86.3222 41.3512 84.8574 42.378 84.3263C42.8237 84.1436 43.3095 84.0815 43.7866 84.146C49.4313 84.4356 55.0016 85.5661 60.3146 87.5004C61.3446 87.8738 62.4003 88.3052 63.1222 89.1293C63.8442 89.9534 64.1362 91.0608 64.3833 92.1231C65.2249 95.715 65.839 99.3567 66.2218 103.026C67.1844 112.111 66.7064 121.276 66.2218 130.389L64.7972 158.213C64.8049 158.607 64.7249 158.999 64.563 159.359C64.21 160.003 63.4142 160.218 62.6987 160.341C59.9424 160.814 57.1252 160.717 54.3336 160.611C34.6964 159.864 14.9565 158.718 -4.55242 161.107C-4.46472 158.212 -4.51071 155.314 -4.69039 152.415C-5.46369 139.896 -8.69805 127.682 -11.8747 115.552C-13.7261 108.47 -15.5197 100.744 -12.5389 94.0707C-12.1005 93.0168 -11.4705 92.054 -10.681 91.2314C-9.41359 89.9856 -7.68411 89.3289 -5.97066 88.8589C-3.01508 88.0523 0.0462494 87.7049 3.10674 87.8287L23.3376 132.018C24.2617 134.04 25.0222 136.168 25.9431 138.164C26.7709 134.716 25.7762 130.676 26.7709 126.938C27.8426 123.059 29.5304 119.348 31.2406 115.723Z" fill="white"/>
<path d="M29.126 146.128C32.7454 146.357 36.2621 144.496 38.7521 141.866C41.242 139.236 42.8849 135.901 44.2743 132.53C46.2716 127.726 47.8591 122.76 49.0199 117.687C49.9825 113.373 50.666 108.908 50.0018 104.536C49.0841 98.5003 45.6797 93.0149 45.0989 86.9371C44.9994 85.8747 45.0636 84.6321 45.9139 83.9915C46.4401 83.5956 47.1332 83.5408 47.7878 83.5022C53.8394 83.1416 60.4878 83.2092 65.1757 87.0626C66.6036 88.2344 67.7619 89.6991 69.1577 90.9063C72.4819 93.8036 77.1794 95.2779 79.3132 99.1248C80.0576 100.464 80.4138 101.98 80.9336 103.422C82.1593 106.835 84.2803 109.835 86.3884 112.787C84.3444 121.44 81.9957 130.1 79.9517 138.753C78.7549 143.83 77.5484 148.925 75.6681 153.786C74.436 156.973 72.8862 160.225 73.2648 163.637C73.4156 164.98 73.8616 166.264 74.2499 167.558C75.6109 172.1 76.2487 176.829 76.1398 181.571L-15.4171 181.796C-11.0308 175.487 -9.74412 167.748 -10.1901 160.07C-10.4051 156.391 -11.233 152.689 -13.078 149.505C-15.985 144.515 -21.0997 141.264 -26.1405 138.479C-29.6701 136.548 -33.4596 147.416 -37.2747 146.17C-36.6586 141.798 -36.3763 124.923 -36.633 120.523C-36.7164 119.081 -36.8448 117.6 -36.402 116.222C-36.1003 115.279 -35.5452 114.435 -35.1698 113.518C-33.6649 109.845 -35.0992 105.148 -32.667 102.022C-30.9857 99.8492 -28.0369 99.2311 -25.64 97.8919C-23.1789 96.5141 -21.2762 94.3508 -19.1328 92.503C-14.927 88.9201 -9.788 86.6181 -4.32142 85.8683C-2.72671 88.3919 -1.7574 91.2618 -1.49456 94.2381C-1.33092 96.1085 -1.44963 98.0046 -1.18973 99.8653C-0.833565 102.386 0.206051 104.752 1.23604 107.083C5.52607 116.801 9.83213 126.549 15.2677 135.675C16.8046 138.251 18.4764 140.826 20.7032 142.832C22.93 144.837 26.1355 146.27 29.126 146.128Z" fill="#1E88E5"/>
<path opacity="0.1" d="M29.126 146.128C32.7454 146.357 36.2621 144.496 38.7521 141.866C41.242 139.236 42.8849 135.901 44.2743 132.53C46.2716 127.726 47.8591 122.76 49.0199 117.687C49.9825 113.373 50.666 108.908 50.0018 104.536C49.0841 98.5003 45.6797 93.0149 45.0989 86.9371C44.9994 85.8747 45.0636 84.6321 45.9139 83.9915C46.4401 83.5956 47.1332 83.5408 47.7878 83.5022C53.8394 83.1416 60.4878 83.2092 65.1757 87.0626C66.6036 88.2344 67.7619 89.6991 69.1577 90.9063C72.4819 93.8036 77.1794 95.2779 79.3132 99.1248C80.0576 100.464 80.4138 101.98 80.9336 103.422C82.1593 106.835 84.2803 109.835 86.3884 112.787C84.3444 121.44 81.9957 130.1 79.9517 138.753C78.7549 143.83 77.5484 148.925 75.6681 153.786C74.436 156.973 72.8862 160.225 73.2648 163.637C73.4156 164.98 73.8616 166.264 74.2499 167.558C75.6109 172.1 76.2487 176.829 76.1398 181.571L-15.4171 181.796C-11.0308 175.487 -9.74412 167.748 -10.1901 160.07C-10.4051 156.391 -11.233 152.689 -13.078 149.505C-15.985 144.515 -21.0997 141.264 -26.1405 138.479C-29.6701 136.548 -33.4596 147.416 -37.2747 146.17C-36.6586 141.798 -36.3763 124.923 -36.633 120.523C-36.7164 119.081 -36.8448 117.6 -36.402 116.222C-36.1003 115.279 -35.5452 114.435 -35.1698 113.518C-33.6649 109.845 -35.0992 105.148 -32.667 102.022C-30.9857 99.8492 -28.0369 99.2311 -25.64 97.8919C-23.1789 96.5141 -21.2762 94.3508 -19.1328 92.503C-14.927 88.9201 -9.788 86.6181 -4.32142 85.8683C-2.72671 88.3919 -1.7574 91.2618 -1.49456 94.2381C-1.33092 96.1085 -1.44963 98.0046 -1.18973 99.8653C-0.833565 102.386 0.206051 104.752 1.23604 107.083C5.52607 116.801 9.83213 126.549 15.2677 135.675C16.8046 138.251 18.4764 140.826 20.7032 142.832C22.93 144.837 26.1355 146.27 29.126 146.128Z" fill="black"/>
<path d="M24.2843 79.9869C39.4748 79.9869 51.7892 67.6323 51.7892 52.3921C51.7892 37.1519 39.4748 24.7973 24.2843 24.7973C9.09375 24.7973 -3.22061 37.1519 -3.22061 52.3921C-3.22061 67.6323 9.09375 79.9869 24.2843 79.9869Z" fill="#EFB7B9"/>
<path d="M9.85158 89.1647C10.6056 82.0246 7.64721 75.039 4.29733 68.694C2.69299 65.6615 0.973129 62.6387 0.167747 59.3069C-0.637635 55.975 -0.406609 52.2022 1.65337 49.4627C3.40532 47.132 6.18405 45.8733 8.75421 44.5051C16.0091 40.6421 22.6414 34.9635 25.8309 27.3695C24.0276 28.3545 24.4961 31.2936 26.0876 32.591C27.6791 33.8883 29.8482 34.1394 31.8055 34.7575C38.9416 37.0109 43.222 44.151 46.6553 50.8212C47.2168 51.9092 47.788 53.0585 47.7816 54.285C47.7751 55.5115 47.2168 56.5996 46.6328 57.6426C44.9387 60.6686 42.8658 63.5755 42.0957 66.9589C41.2134 70.8219 42.1439 74.8845 43.3536 78.6734C44.637 82.7038 46.3409 86.7664 49.4212 89.6573C52.5015 92.5481 57.2793 93.9838 61.0688 92.1167C57.2857 85.5915 53.3679 78.3 54.8439 70.9024C55.5562 67.3613 57.4718 64.1421 58.2868 60.6203C59.8398 53.9019 57.2536 46.9903 54.7155 40.5777L47.1302 21.4397C45.9719 18.5135 44.6531 15.3909 41.9963 13.733C40.1994 12.616 38.0239 12.3263 35.919 12.1235C29.1422 11.5182 22.1216 11.7178 15.8133 14.2481C4.3198 18.8547 -2.88694 30.212 -8.60483 41.228C-10.3183 44.5277 -12.0093 48.0333 -11.9387 51.7547C-11.9002 53.7957 -11.3322 55.7819 -10.8702 57.7713C-8.98986 65.8708 -8.88719 74.2632 -8.79093 82.5783C-8.71713 88.9587 -9.04763 94.9721 -11.8296 100.783C-8.01764 101.542 -2.48906 103.593 1.28437 102.093C6.20329 100.142 9.2323 94.1319 9.85158 89.1647Z" fill="#454B69"/>
<g opacity="0.1">
<path opacity="0.1" d="M58.2865 60.6203C58.7077 58.7393 58.8483 56.8061 58.7036 54.8837C58.6406 55.8398 58.5011 56.7893 58.2865 57.723C57.4715 61.2641 55.5559 64.4543 54.8435 68.0051C54.5366 69.5712 54.4501 71.1728 54.5868 72.763C54.6379 72.1385 54.7236 71.5173 54.8435 70.9023C55.5559 67.3516 57.4715 64.1485 58.2865 60.6203Z" fill="black"/>
<path opacity="0.1" d="M47.5308 52.8073C47.6875 52.3501 47.7719 51.8711 47.7811 51.3877C47.7811 50.1612 47.2164 49.0119 46.6548 47.9238C43.2215 41.2537 38.954 34.12 31.805 31.8602C29.8477 31.2421 27.6819 30.991 26.0871 29.6937C25.6767 29.3391 25.341 28.9059 25.0997 28.4194C24.8584 27.933 24.7163 27.4031 24.6817 26.8608C21.2035 33.2669 15.2289 38.1665 8.7538 41.6078C6.18685 42.976 3.40492 44.2347 1.65297 46.5653C0.00691468 48.7544 -0.471174 51.6033 -0.1856 54.359C-0.0237367 52.5904 0.611512 50.8987 1.65297 49.4626C3.40492 47.1319 6.18364 45.8732 8.7538 44.5051C15.2289 41.0638 21.2035 36.1642 24.6817 29.758C24.7163 30.3003 24.8584 30.8302 25.0997 31.3167C25.341 31.8031 25.6767 32.2363 26.0871 32.5909C27.6915 33.8786 29.8477 34.1393 31.805 34.7574C38.9411 37.0108 43.2215 44.151 46.6548 50.8211C47.0029 51.4568 47.296 52.1213 47.5308 52.8073Z" fill="black"/>
<path opacity="0.1" d="M49.4208 86.76C46.3405 83.8628 44.6431 79.8066 43.3532 75.7762C42.5792 73.5122 42.0626 71.1677 41.813 68.7874C41.5146 72.0934 42.3328 75.4768 43.3532 78.6734C44.6367 82.7038 46.3405 86.7664 49.4208 89.6573C52.5012 92.5481 57.279 93.9838 61.0684 92.1167C60.6128 91.3345 60.1604 90.5393 59.7112 89.7377C56.1912 90.7325 52.1482 89.316 49.4208 86.76Z" fill="black"/>
<path opacity="0.1" d="M9.8513 86.2674C9.23202 91.2346 6.20301 97.2448 1.27124 99.2085C-2.15244 100.57 -7.02646 99.0057 -10.7453 98.1397C-11.0654 99.0433 -11.4317 99.9298 -11.8427 100.796C-8.03078 101.555 -2.50219 103.606 1.27124 102.106C6.20301 100.142 9.23202 94.1318 9.8513 89.1647C9.97891 87.9219 10.0025 86.6707 9.9219 85.424C9.90265 85.704 9.87376 85.9873 9.8513 86.2674Z" fill="black"/>
</g>
<path d="M48.7313 166.084C43.7739 165.295 38.7427 163.772 33.8269 164.796C30.9776 165.388 28.3722 166.811 26.0041 168.53C27.3069 169.576 28.8278 170.51 29.6556 171.965C30.1695 172.972 30.5554 174.039 30.8043 175.142C31.3241 177.074 31.8472 179.044 31.9274 181.053C32.0076 183.062 31.6065 185.154 30.4129 186.773C36.6634 187.391 42.7214 185.846 48.818 184.336C49.5152 184.214 50.1788 183.945 50.7657 183.548C51.7283 182.788 52.0106 181.436 52.0171 180.203C52.0171 178.001 51.401 175.854 50.7753 173.742C50.0309 171.209 49.479 168.601 48.7313 166.084Z" fill="white"/>
<path d="M82.2044 111.786C84.6654 112.108 86.5746 114.1 87.98 116.148C91.9235 121.846 93.6241 128.754 95.5172 135.427C97.8703 143.727 100.637 151.895 103.818 159.932C104.503 161.788 105.336 163.586 106.308 165.308C107.101 166.637 108.063 167.915 108.413 169.425C109.26 173.076 106.26 176.507 103.131 178.542C101.464 179.67 99.643 180.55 97.7248 181.156C95.8573 181.716 93.9097 181.928 91.9748 182.141L74.1634 184.072C65.9652 184.967 57.6932 185.862 49.4917 185C48.9751 183.197 49.9891 181.922 49.9153 180.045C49.8639 178.703 49.2736 177.454 48.7473 176.218C47.777 174.016 47.1358 171.683 46.8446 169.293C46.7515 168.414 46.7194 167.513 46.3857 166.695C46.052 165.878 45.3365 165.144 44.4605 165.086C49.2735 164.606 52.9283 163.695 57.7413 163.212C59.5285 163.032 61.3864 162.829 62.9105 161.876C64.8004 160.695 65.8593 158.564 66.7 156.497C68.7824 151.379 70.1236 145.739 69.0295 140.317C68.131 135.872 65.625 131.732 65.6379 127.196C65.6379 124.495 66.5556 121.878 67.6401 119.406C68.7888 116.792 70.2873 114.12 72.8093 112.793C75.3314 111.467 79.3583 111.4 82.2044 111.786Z" fill="#1E88E5"/>
<path opacity="0.08" d="M82.2044 111.786C84.6654 112.108 86.5746 114.1 87.98 116.148C91.9235 121.846 93.6241 128.754 95.5172 135.427C97.8703 143.727 100.637 151.895 103.818 159.932C104.503 161.788 105.336 163.586 106.308 165.308C107.101 166.637 108.063 167.915 108.413 169.425C109.26 173.076 106.26 176.507 103.131 178.542C101.464 179.67 99.643 180.55 97.7248 181.156C95.8573 181.716 93.9097 181.928 91.9748 182.141L74.1634 184.072C65.9652 184.967 57.6932 185.862 49.4917 185C48.9751 183.197 49.9891 181.922 49.9153 180.045C49.8639 178.703 49.2736 177.454 48.7473 176.218C47.777 174.016 47.1358 171.683 46.8446 169.293C46.7515 168.414 46.7194 167.513 46.3857 166.695C46.052 165.878 45.3365 165.144 44.4605 165.086C49.2735 164.606 52.9283 163.695 57.7413 163.212C59.5285 163.032 61.3864 162.829 62.9105 161.876C64.8004 160.695 65.8593 158.564 66.7 156.497C68.7824 151.379 70.1236 145.739 69.0295 140.317C68.131 135.872 65.625 131.732 65.6379 127.196C65.6379 124.495 66.5556 121.878 67.6401 119.406C68.7888 116.792 70.2873 114.12 72.8093 112.793C75.3314 111.467 79.3583 111.4 82.2044 111.786Z" fill="black"/>
<path d="M-29.3332 107.604C-28.1685 104.829 -26.9844 101.964 -26.9524 98.9542C-26.9171 95.6996 -28.2358 92.6092 -29.2434 89.5188C-30.4893 85.7376 -31.3189 81.831 -31.7173 77.8686C-31.7999 77.489 -31.7429 77.0923 -31.5568 76.7516C-31.2905 76.3749 -30.7771 76.2977 -30.3247 76.1979C-28.1043 75.6892 -26.4261 73.8897 -25.04 72.0773C-22.8895 69.2783 -21.0738 66.2357 -19.6301 63.0121C-18.568 60.6396 -17.1305 57.7456 -14.5379 57.723C-15.5817 62.6417 -16.8754 67.5036 -18.414 72.2898C-15.7027 71.5944 -13.1261 70.5836 -10.4147 69.8883C-9.88396 69.7201 -9.32802 69.646 -8.77189 69.6694C-7.14829 69.84 -6.1536 72.0451 -7.09696 73.3811C-5.77177 74.9392 -3.56739 75.3577 -1.83469 76.4264C-0.101995 77.4952 1.14297 80.1414 -0.397202 81.4837C-0.698818 81.7445 -1.08065 81.928 -1.29884 82.2628C-2.04326 83.4152 -0.220716 84.7383 -0.371527 86.1033C-0.493456 87.2203 -1.92133 87.7418 -3.00266 87.4457C-4.08399 87.1495 -4.92788 86.3383 -5.89049 85.7427C-6.85309 85.1472 -8.1109 84.777 -9.04463 85.395C-9.29491 88.4243 -9.56444 91.5115 -10.8704 94.2703C-11.3485 95.2779 -11.9613 96.2211 -12.3464 97.2674C-12.7147 98.4082 -12.9431 99.5897 -13.0266 100.786L-14.1914 111.47C-19.7488 112.587 -24.7319 110.917 -29.3332 107.604Z" fill="#EFB7B9"/>
<path d="M8.80532 170.336C6.57528 170.465 4.32919 170.594 2.10878 170.336C0.504425 170.143 -1.06141 169.747 -2.65292 169.477C-6.99933 168.772 -11.4462 169.02 -15.6882 170.203C-19.9302 171.385 -23.867 173.474 -27.2283 176.327C-28.4605 177.383 -29.7055 179.002 -29.0252 180.48C-28.2936 182.07 -26.0572 182.025 -24.3341 181.729C-26.1939 182.62 -27.8368 183.909 -29.1471 185.505C-29.6284 186.094 -30.0841 186.793 -29.991 187.556C-29.7953 189.149 -27.6391 189.439 -26.0443 189.3C-26.5641 189.861 -26.2144 190.852 -25.5534 191.232C-24.8924 191.612 -24.071 191.534 -23.3234 191.396C-21.6705 191.092 -20.0735 190.538 -18.5873 189.751C-18.8889 190.54 -18.3659 191.464 -17.6247 191.856C-16.8835 192.249 -15.9819 192.22 -15.1508 192.085C-11.2298 191.441 -7.95691 188.705 -4.13215 187.63C1.98363 185.914 8.38177 188.65 14.7382 188.843C16.7276 188.904 18.7683 188.702 20.5812 187.878C22.8049 186.863 24.5985 184.961 26.9473 184.285C29.556 183.538 32.5497 184.398 34.937 183.107C36.6729 182.17 35.107 174.949 34.6642 173.559C33.8524 171.015 33.0374 169.329 30.3325 169.071C23.4883 168.398 15.7008 169.937 8.80532 170.336Z" fill="#EFB7B9"/>
<path d="M25.8789 168.366C25.8789 168.366 36.2398 177.164 30.262 186.764L41.8133 182.762V174.363C41.8133 173.964 37.427 167.967 37.427 167.967L32.245 167.165L25.8789 168.366Z" fill="white"/>
<path d="M130.787 189.226L84.537 195.365L82.2236 195.671L59.6119 183.554V180.718L130.274 172.986L130.787 189.226Z" fill="#9C9CA1"/>
<path d="M72.7164 184.842L122.82 178.915L122.307 188.196L83.2794 191.068L72.7164 184.842Z" fill="#939498"/>
<path opacity="0.4" d="M84.5371 192.317V195.362L82.2236 195.684L59.6088 183.554V180.718L81.1936 192.307C81.1936 192.307 84.0237 192.574 84.5371 192.317Z" fill="black"/>
<path d="M93.4156 143.981L83.0323 192.285C82.9276 192.768 82.9404 193.27 83.0697 193.747C83.199 194.225 83.441 194.664 83.7752 195.028C84.1094 195.392 84.5259 195.67 84.9897 195.839C85.4535 196.007 85.9509 196.061 86.4399 195.996L152.132 187.272C152.704 187.197 153.243 186.961 153.688 186.592C154.133 186.223 154.465 185.736 154.647 185.186L168.82 142.307C168.977 141.831 169.016 141.324 168.933 140.83C168.851 140.336 168.651 139.869 168.349 139.47C168.047 139.071 167.653 138.751 167.201 138.539C166.748 138.326 166.251 138.227 165.752 138.251L96.2778 141.56C95.6019 141.592 94.9554 141.847 94.4381 142.284C93.9208 142.722 93.5614 143.318 93.4156 143.981Z" fill="#3F3D56"/>
<path d="M129.512 161.801C129.673 160.263 129.005 158.931 128.02 158.827C127.035 158.724 126.105 159.886 125.944 161.425C125.783 162.963 126.451 164.294 127.436 164.398C128.421 164.502 129.351 163.339 129.512 161.801Z" fill="white"/>
</svg>
