<svg width="18" height="18" viewBox="0 0 18 18" fill="none" xmlns="http://www.w3.org/2000/svg">
<g id="Iconly/Light/Camera">
<g id="Camera">
<path id="Stroke 1" fill-rule="evenodd" clip-rule="evenodd" d="M11.2802 3.03844C12.0377 3.33994 12.2694 4.38994 12.5792 4.72744C12.8889 5.06494 13.3322 5.17969 13.5774 5.17969C14.8809 5.17969 15.9377 6.23644 15.9377 7.53919V11.8854C15.9377 13.6329 14.5202 15.0504 12.7727 15.0504H5.22765C3.4794 15.0504 2.06265 13.6329 2.06265 11.8854V7.53919C2.06265 6.23644 3.1194 5.17969 4.4229 5.17969C4.6674 5.17969 5.11065 5.06494 5.42115 4.72744C5.7309 4.38994 5.9619 3.33994 6.7194 3.03844C7.47765 2.73694 10.5227 2.73694 11.2802 3.03844Z" stroke="#4F4F4F" stroke-width="1.5" stroke-linecap="round" stroke-linejoin="round"/>
<path id="Stroke 13" d="M13.1216 7.125H13.1284" stroke="#4F4F4F" stroke-width="2" stroke-linecap="round" stroke-linejoin="round"/>
<path id="Stroke 5" fill-rule="evenodd" clip-rule="evenodd" d="M11.3842 9.84598C11.3842 8.52898 10.3169 7.46173 8.99994 7.46173C7.68294 7.46173 6.61569 8.52898 6.61569 9.84598C6.61569 11.163 7.68294 12.2302 8.99994 12.2302C10.3169 12.2302 11.3842 11.163 11.3842 9.84598Z" stroke="#4F4F4F" stroke-width="1.5" stroke-linecap="round" stroke-linejoin="round"/>
</g>
</g>
</svg>
